<svg width="120" height="44" viewBox="0 0 120 44" xmlns="http://www.w3.org/2000/svg"><title>Group 13</title><g fill="none" fill-rule="evenodd"><path d="M29.569 10.69a22.9 22.9 0 0 1-6.771 8.917l-.037.015-.036-.015a22.899 22.899 0 0 1-6.782-8.943C14.239 6.651 14.62 2.86 15.71 0a13.6 13.6 0 0 0 7.05 1.961c2.575 0 4.986-.715 7.05-1.961 1.084 2.822 1.47 6.671-.242 10.69M14.43 12.046a23.308 23.308 0 0 1 6.315 9.442l.003.04-.025.032a22.501 22.501 0 0 1-10.57 3.85c-4.326.414-7.79-1.15-10.153-3.116a14.254 14.254 0 0 0 4.055-6.305c.804-2.527.88-5.117.347-7.534 3.006-.178 6.765.65 10.029 3.591M10.445 26.97a21.784 21.784 0 0 1 10.517-3.186l.038.009.02.034a23.844 23.844 0 0 1 .313 11.354c-.932 4.291-3.405 7.146-5.912 8.819a14.023 14.023 0 0 0-4.52-5.834 13.361 13.361 0 0 0-6.763-2.642c.747-2.948 2.639-6.312 6.307-8.553m13.142 8.183a23.845 23.845 0 0 1 .319-11.327l.02-.034.038-.01a21.77 21.77 0 0 1 10.54 3.201c3.658 2.242 5.52 5.557 6.284 8.54a13.362 13.362 0 0 0-6.762 2.642A14.01 14.01 0 0 0 29.506 44c-2.481-1.645-4.99-4.546-5.919-8.846m11.779-10.247a22.733 22.733 0 0 1-10.513-3.76l-.025-.03.003-.039a22.739 22.739 0 0 1 6.316-9.241c3.253-2.864 6.946-3.66 9.98-3.491a13.902 13.902 0 0 0 .347 7.36 13.896 13.896 0 0 0 4.043 6.158c-2.322 1.904-5.83 3.452-10.15 3.043" fill="#F17D4C"/><path fill="#E6412F" d="M22.759 18.432l.767 2.499h2.484L24 22.475l.768 2.498-2.01-1.544-2.009 1.544.768-2.498-2.01-1.544h2.485z"/><path d="M116.854 19.057c-.208.15-.368.313-.484.49a6.425 6.425 0 0 0-.368.666 2.45 2.45 0 0 0-.213.554 1.84 1.84 0 0 1-.262.578c-.12.177-.29.316-.508.418-.218.102-.53.12-.934.056.153-.086.284-.2.393-.346.11-.144.2-.29.27-.44.072-.15.129-.295.172-.435l.1-.32c.14-.482.351-.824.63-1.028.279-.203.68-.268 1.204-.193zm-4.687 10.612h2.606l-1.36-2.713-1.246 2.713zm2.983 1.606h-3.408l-1.377 2.617h-2.393l5.392-10.933h1.425L120 33.876h-3.457l-1.393-2.601zm-15.453-6.036a1.087 1.087 0 0 0-.279-.394c-.13-.123-.28-.23-.45-.322a2.512 2.512 0 0 0-.565-.216 2.415 2.415 0 0 0-.607-.08 3.255 3.255 0 0 0-1.417.281 3.53 3.53 0 0 0-1.156.827 3.93 3.93 0 0 0-.778 1.276 4.47 4.47 0 0 0-.287 1.613c0 .931.17 1.7.509 2.305.338.604.758 1.053 1.26 1.348a3.05 3.05 0 0 0 1.624.425 2.978 2.978 0 0 0 1.589-.481l-.016-2.987h3.031v4.32c-.579.16-1.1.288-1.565.384-.464.097-.882.166-1.254.209a18.172 18.172 0 0 1-2.163.129c-1.922 0-3.484-.428-4.686-1.285-1.355-.942-2.032-2.296-2.032-4.062 0-1.883.689-3.355 2.064-4.415 1.388-1.07 3.147-1.551 5.277-1.445 2.141.097 3.617.942 4.424 2.537l-2.523.033zM77.28 33.876v-10.95h1.851l7.113 6.358v-6.358h2.327l-.017 10.95H86.26l-6.243-5.572v5.572H77.28zM72.068 21.85c-.545.043-.993.03-1.342-.04a2.917 2.917 0 0 1-.878-.305 2.131 2.131 0 0 1-.573-.458 8.79 8.79 0 0 1-.402-.498 5.41 5.41 0 0 1-.491.666c-.164.188-.36.338-.59.45-.23.112-.511.185-.844.217a6.546 6.546 0 0 1-1.27-.032c.328-.118.595-.265.803-.442.207-.176.39-.361.549-.554.158-.192.309-.382.45-.57.143-.186.307-.345.492-.473h1.77c.196.139.374.3.533.481.158.182.319.364.483.547.164.182.35.36.557.537.208.177.459.335.753.474zm-3.424 2.472a3.39 3.39 0 0 0-.787.112c-.305.075-.597.247-.876.514-.279.268-.517.664-.713 1.188-.197.524-.3 1.231-.311 2.12 0 .867.104 1.559.31 2.078.209.52.454.92.738 1.205.284.283.574.47.868.561.296.092.536.137.722.137.491 0 .901-.102 1.229-.305a2.25 2.25 0 0 0 .786-.835 3.9 3.9 0 0 0 .418-1.26 10.492 10.492 0 0 0 .025-3.027 3.99 3.99 0 0 0-.377-1.26 2.342 2.342 0 0 0-.762-.89c-.322-.226-.746-.338-1.27-.338zm6.31 3.95c0 .866-.192 1.648-.574 2.344a5.804 5.804 0 0 1-1.483 1.766 6.795 6.795 0 0 1-2.032 1.107 6.813 6.813 0 0 1-2.22.386 7.187 7.187 0 0 1-2.196-.362 6.64 6.64 0 0 1-2.057-1.075 5.913 5.913 0 0 1-1.525-1.758c-.398-.696-.597-1.499-.597-2.409.01-.845.186-1.621.524-2.327a5.477 5.477 0 0 1 1.376-1.806 6.439 6.439 0 0 1 2.024-1.165 7.16 7.16 0 0 1 2.45-.417c.95 0 1.813.142 2.589.425.776.284 1.44.68 1.991 1.188a5.259 5.259 0 0 1 1.278 1.815c.3.7.451 1.463.451 2.287zM52.6 24.515v2.552h1.114v1.67l-1.114-.016v3.548l.509.016c.687-.022 1.275-.133 1.76-.337a3.139 3.139 0 0 0 1.197-.85 3.5 3.5 0 0 0 .689-1.301 5.991 5.991 0 0 0 .22-1.686c0-1.263-.286-2.178-.86-2.745-.573-.568-1.45-.85-2.63-.85H52.6zm-3.654 4.222h-1.065v-1.67h1.065v-4.142h6.08c1.77 0 3.135.53 4.096 1.59.841.931 1.262 2.124 1.262 3.58 0 1.776-.623 3.195-1.868 4.254-1.191 1.017-2.72 1.526-4.588 1.526h-4.982v-5.138zm43.719-10.11c-.552.422-1.361.631-2.429.631-1.212 0-2.148-.348-2.805-1.044-.657-.697-.986-1.673-.986-2.931 0-1.239.374-2.22 1.124-2.938.727-.698 1.697-1.048 2.906-1.048.868 0 1.647.18 2.333.537-.118.399-.175.76-.175 1.08-.498-.803-1.23-1.206-2.19-1.206-.983 0-1.723.356-2.223 1.07-.437.624-.656 1.463-.656 2.517 0 1.008.216 1.826.65 2.455.493.72 1.207 1.08 2.15 1.08.826 0 1.617-.315 2.37-.942l-.07.74zm-11.703 1.57c0-.175.058-.324.177-.447a.58.58 0 0 1 .433-.184.57.57 0 0 1 .429.184.622.622 0 0 1 .175.447c0 .169-.06.312-.181.432a.576.576 0 0 1-.423.182.592.592 0 0 1-.433-.176.591.591 0 0 1-.177-.438zm.592-.928c-1.22 0-2.188-.344-2.907-1.03-.734-.71-1.102-1.69-1.102-2.944 0-1.235.373-2.214 1.119-2.933.726-.701 1.688-1.054 2.89-1.054 1.212 0 2.176.349 2.895 1.043.73.713 1.097 1.693 1.097 2.944 0 1.212-.375 2.183-1.124 2.911-.731.71-1.689 1.063-2.868 1.063zm0-.428c.997 0 1.744-.346 2.241-1.037.445-.614.669-1.454.669-2.521 0-2.367-.97-3.552-2.91-3.552-1.001 0-1.752.35-2.253 1.052-.446.625-.668 1.472-.668 2.543 0 1.065.224 1.9.673 2.506.498.672 1.247 1.009 2.248 1.009zm-11.805.269c.063-1.053.096-2.43.096-4.134 0-1.633-.033-2.812-.096-3.537.185.03.362.046.536.046.182 0 .353-.016.508-.046-.052.354-.08 1.305-.08 2.852v.439c.502.007 1.016.01 1.54.01h1.473c.488 0 .977-.003 1.469-.01v-.439c0-1.03-.03-1.982-.086-2.852a3.093 3.093 0 0 0 1.045 0c-.06.864-.09 2.042-.09 3.537 0 1.503.03 2.88.09 4.134a3.171 3.171 0 0 0-.547-.043c-.176 0-.342.013-.498.043l.01-.153c.05-.863.076-1.836.076-2.922v-.806a63.686 63.686 0 0 0-4.481 0v.87c0 .994.005 1.685.016 2.076.01.412.033.724.063.935a3.306 3.306 0 0 0-1.044 0zm-5.932 0c.045-.68.07-1.604.07-2.77v-1.5c0-1.583-.025-2.718-.07-3.4.148.03.313.045.492.045.178 0 .351-.016.522-.046-.044.43-.066 1.058-.066 1.893v4.156c0 .741.022 1.282.066 1.622a2.659 2.659 0 0 0-.5-.043 2.75 2.75 0 0 0-.514.043zm-5.148 1.087c0-.175.059-.324.177-.447a.58.58 0 0 1 .433-.184c.17 0 .313.062.428.184a.622.622 0 0 1 .176.447c0 .169-.06.312-.18.432a.577.577 0 0 1-.424.182.592.592 0 0 1-.433-.176.591.591 0 0 1-.177-.438zm-2.612-1.087a349.285 349.285 0 0 0 3.357-7.813h.207a290.686 290.686 0 0 0 3.143 7.813 3.198 3.198 0 0 0-.53-.054c-.163 0-.345.017-.552.054a36.18 36.18 0 0 0-1.107-2.998c-.32-.015-.764-.022-1.336-.022-.586 0-1.035.007-1.346.022a46.576 46.576 0 0 0-1.119 2.998 1.218 1.218 0 0 0-.717 0zm2.022-3.492c.077 0 .213.002.407.006.18.004.319.005.415.005.162 0 .407-.001.73-.005.326-.006.568-.007.728-.007-.234-.618-.607-1.546-1.12-2.783l-1.16 2.784zm-9.206 3.492c.034-1.272.053-2.274.053-3.005v-.927a13.7 13.7 0 0 0-1.044.045v-.5c.222.02.57.029 1.044.029 0-1.254-.019-2.358-.053-3.313.333.015.607.023.822.023.233 0 .582-.01 1.048-.026.463-.019.813-.028 1.045-.028.623 0 1.115.04 1.479.125a2.746 2.746 0 0 1 1.786 1.295c.371.61.557 1.35.557 2.22 0 1.375-.385 2.408-1.156 3.104-.727.653-1.767.981-3.122.981-.175 0-.44-.008-.792-.023a21.16 21.16 0 0 0-.793-.022c-.077 0-.369.008-.874.022zm.975-.48c.468.035.847.054 1.14.054 2.371 0 3.556-1.14 3.556-3.422 0-1.167-.225-2.017-.678-2.55-.485-.571-1.28-.855-2.39-.855-.57 0-1.112.018-1.63.054-.008.376-.022 1.323-.04 2.84h.736c.441 0 .905-.009 1.39-.027v.5c-.254 0-.609-.008-1.063-.023-.477-.015-.83-.023-1.064-.023a160 160 0 0 0 .043 3.451zm65.824-12.84h.623c.297 0 .5-.046.608-.134a.437.437 0 0 0 .163-.355.44.44 0 0 0-.296-.421c-.093-.037-.264-.055-.515-.055h-.583v.965zm-.513 1.8h.513V6.231h.3c.181 0 .32.037.412.11.137.1.314.35.537.745l.282.504h.627l-.388-.626c-.186-.297-.343-.508-.47-.634a.849.849 0 0 0-.271-.17.986.986 0 0 0 .662-.292.856.856 0 0 0 .248-.61.824.824 0 0 0-.149-.47.783.783 0 0 0-.4-.309c-.166-.059-.437-.087-.81-.087h-1.093V7.59zm1.296-4.125c-.416 0-.82.107-1.213.321-.392.214-.7.52-.923.918a2.528 2.528 0 0 0-.332 1.244c0 .428.11.838.328 1.23.217.393.522.7.915.92.39.219.8.329 1.225.329.426 0 .834-.11 1.227-.33.39-.22.695-.526.911-.919a2.502 2.502 0 0 0-.005-2.474 2.281 2.281 0 0 0-.922-.918 2.518 2.518 0 0 0-1.21-.321zm0-.492c.497 0 .98.127 1.454.383.472.256.84.622 1.105 1.1.263.476.395.974.395 1.492 0 .512-.13 1.005-.39 1.477-.26.472-.625.84-1.093 1.1a2.96 2.96 0 0 1-1.47.394 2.971 2.971 0 0 1-1.472-.393 2.768 2.768 0 0 1-1.094-1.1 2.992 2.992 0 0 1-.392-1.478c0-.518.132-1.016.397-1.491a2.716 2.716 0 0 1 1.107-1.1 3.014 3.014 0 0 1 1.453-.384z" fill="#FFF"/></g></svg>