<svg width="482" height="74" viewBox="0 0 482 74" xmlns="http://www.w3.org/2000/svg" xmlns:xlink="http://www.w3.org/1999/xlink"><title>Group 22</title><defs><path id="a" d="M10.34.196H.025v15.235H10.34V.196z"/><path id="c" d="M11.05 16.333V.448H.447v15.885z"/></defs><g fill="none" fill-rule="evenodd"><path d="M223.641 26.338h10.261l-.797 3.499h-.396l.087-.7c.027-.216.018-.352.018-.398-.006-.107-.018-.188-.02-.231-.038-.454-.21-.809-.522-1.043-.098-.072-.302-.133-.608-.188a5.986 5.986 0 0 0-1.108-.084h-1.115l-2.203 10.629-.276 1.262c-.053.324-.076.543-.064.662.008.11.04.21.098.3.059.093.146.18.262.26.096.06.245.113.446.156.198.035.424.05.678.05h.45l-.084.39h-5.669l.073-.39h.26c.506 0 .89-.076 1.152-.232.174-.104.328-.3.46-.592.06-.124.13-.35.218-.67l.273-1.147 2.22-10.678h-.721a7.78 7.78 0 0 0-.629.015c-.113.009-.264.037-.454.063a3.39 3.39 0 0 0-.829.214 3.04 3.04 0 0 0-.637.35 2.14 2.14 0 0 0-.48.476c-.111.154-.23.37-.344.65a5.406 5.406 0 0 0-.25.876H223l.64-3.499zm14.799 6.4c-.224 0-.454.05-.692.15-.24.101-.478.24-.71.425-.341.266-.65.595-.929.99a9.632 9.632 0 0 0-.794 1.4c-.478 1.062-.681 2.021-.608 2.876.017.208.064.4.136.572.073.177.18.324.32.44.28.25.577.378.894.378.393 0 .797-.127 1.22-.376.418-.248.846-.632 1.282-1.15a6.915 6.915 0 0 0 1.11-2.06 5.66 5.66 0 0 0 .212-.97 4.98 4.98 0 0 0 .014-1.002l-.011-.139a2.357 2.357 0 0 0-.149-.676 1.36 1.36 0 0 0-.305-.488c-.254-.249-.585-.37-.99-.37zm3.562-.468l-1.283 6.581-.169.875a.424.424 0 0 0-.038.203l.026.135.061.11a.26.26 0 0 0 .155.075c.058 0 .13-.046.22-.136.062-.063.155-.205.28-.416a9.42 9.42 0 0 0 .358-.73l.355.234a5.617 5.617 0 0 1-.515.855c-.172.23-.35.43-.538.592-.186.162-.379.28-.562.358a1.378 1.378 0 0 1-.535.116.792.792 0 0 1-.565-.203.792.792 0 0 1-.169-.245 1.36 1.36 0 0 1-.075-.355c-.006-.073-.01-.154-.015-.252 0-.092.003-.19.015-.294l.043-.42c.026-.126.05-.225.064-.291l.16-.745a19.01 19.01 0 0 1-.631.782c-.2.229-.402.445-.608.645a5.903 5.903 0 0 1-1.176.913 3.481 3.481 0 0 1-.812.35 3.01 3.01 0 0 1-.83.115 1.991 1.991 0 0 1-1.408-.564c-.419-.381-.655-.907-.713-1.58a4.558 4.558 0 0 1-.006-.771c.015-.252.059-.514.128-.786a6.974 6.974 0 0 1 .617-1.64 7.383 7.383 0 0 1 1.019-1.509 7.84 7.84 0 0 1 1.35-1.196c.364-.251.742-.45 1.126-.592a3.21 3.21 0 0 1 1.447-.202c.067.005.163.029.282.066.169.038.332.104.492.197a1.5 1.5 0 0 1 .419.366c.116.148.23.338.332.564l.212-.974 1.487-.23zm-4.657 10.14c.11 0 .232.029.366.087.05.011.102.034.154.07.056.03.111.071.17.123.084.078.156.182.22.304a.749.749 0 0 1 .12.358.89.89 0 0 1-.058.358.603.603 0 0 1-.163.292.994.994 0 0 1-.28.2.809.809 0 0 1-.37.083.818.818 0 0 1-.366-.078c-.084-.026-.192-.095-.332-.205a1.421 1.421 0 0 1-.212-.295.883.883 0 0 1-.108-.355.961.961 0 0 1 .03-.358.65.65 0 0 1 .177-.304 1.02 1.02 0 0 1 .267-.187.802.802 0 0 1 .385-.093m12.593-8.01a2.857 2.857 0 0 0-.175-.783 1.851 1.851 0 0 0-.396-.615 1.66 1.66 0 0 0-.538-.37 1.72 1.72 0 0 0-.64-.127c-.463 0-.902.176-1.324.525-.396.333-.772.85-1.12 1.555a9.377 9.377 0 0 0-.728 2.077 7.148 7.148 0 0 0-.12 2.05c.027.304.09.584.195.833.102.248.233.453.39.615.172.156.355.283.56.379.226.083.441.127.66.127.91 0 1.71-.688 2.395-2.063.68-1.378.963-2.776.84-4.203m1.706.71c.04.503.02.991-.067 1.465a6.14 6.14 0 0 1-.46 1.43c-.224.477-.5.91-.835 1.291a5.666 5.666 0 0 1-2.462 1.615 4.34 4.34 0 0 1-1.327.211c-.44 0-.852-.07-1.228-.208a2.956 2.956 0 0 1-1.013-.62 3.388 3.388 0 0 1-.733-.989 3.608 3.608 0 0 1-.204-.583 3.71 3.71 0 0 1-.116-.66 5.3 5.3 0 0 1 .087-1.438c.041-.24.105-.476.186-.716.082-.234.18-.48.303-.731.23-.465.512-.896.859-1.289.34-.39.73-.725 1.16-1.005.874-.563 1.741-.843 2.611-.843.442 0 .841.072 1.193.222.35.127.69.344 1.016.641.297.266.532.587.71.974.079.17.148.367.204.58.058.214.096.431.116.653" fill="#000"/><g transform="translate(257.921 25.694)"><mask id="b" fill="#fff"><use xlink:href="#a"/></mask><path d="M6.946 8.212a1.45 1.45 0 0 0-.154-.563 1.16 1.16 0 0 0-.332-.44 1.28 1.28 0 0 0-.462-.294 1.595 1.595 0 0 0-.57-.104c-.9 0-1.776.685-2.634 2.051-.856 1.367-1.231 2.67-1.127 3.906.02.24.067.456.143.647.076.19.178.347.309.465.13.121.279.22.439.298.07.029.145.046.233.066.087.02.174.032.256.032.789 0 1.659-.737 2.604-2.207.466-.725.812-1.41 1.034-2.057.224-.641.308-1.242.261-1.8zM10.34.195L7.63 13.002l-.151.786-.026.456.006.087.05.08c.022.044.057.07.113.076.037 0 .101-.04.186-.116.055-.052.137-.182.253-.387l.358-.76.355.205c-.308.627-.634 1.121-.98 1.477a1.81 1.81 0 0 1-.516.39 1.01 1.01 0 0 1-.489.135.702.702 0 0 1-.25-.057 1.018 1.018 0 0 1-.218-.168c-.149-.156-.239-.373-.262-.659-.032-.37.023-.866.166-1.487l.265-1.271a18.65 18.65 0 0 1-.664 1 16.4 16.4 0 0 1-.675.883A7.426 7.426 0 0 1 3.92 14.86c-.265.188-.538.33-.824.428a2.586 2.586 0 0 1-.817.144 1.83 1.83 0 0 1-.78-.164 1.866 1.866 0 0 1-.696-.488c-.442-.437-.695-1.035-.762-1.789a4.836 4.836 0 0 1 .116-1.505c.07-.277.151-.543.248-.797.096-.251.218-.523.372-.815a7.404 7.404 0 0 1 1.045-1.5c.407-.444.87-.846 1.388-1.192a6.136 6.136 0 0 1 1.19-.624 3.86 3.86 0 0 1 .576-.153 2.769 2.769 0 0 1 1.089-.006c.168.037.329.09.474.159.146.072.291.173.434.3.145.122.296.266.448.44l.652-3.178.072-.457.076-.35.291-1.441.003-.292a.456.456 0 0 0-.172-.344.732.732 0 0 0-.227-.115c-.078-.026-.195-.07-.329-.06l-.3.02-.456.051L6.996.74 10.34.195z" fill="#000" mask="url(#b)"/></g><path d="M276.729 32.406l-.053.211-1.155 5.36c-.076.317-.146.675-.213 1.077l-.043.612.011.136.047.092c.029.035.081.061.163.076.105 0 .207-.05.308-.148.032-.02.123-.136.274-.35l.489-.817.323.214c-.396.765-.832 1.335-1.313 1.71a1.9 1.9 0 0 1-.442.24 1.3 1.3 0 0 1-.466.08.81.81 0 0 1-.337-.051.968.968 0 0 1-.245-.17c-.06-.032-.113-.105-.154-.214a.87.87 0 0 1-.084-.318l-.015-.156-.017-.226.038-.242.017-.234.05-.231.075-.373.108-.494.206-.855.254-1.107a30.266 30.266 0 0 1-1.415 2.262c-.401.59-.794 1.072-1.181 1.44-.396.343-.748.586-1.065.73-.154.07-.326.127-.507.17a2.262 2.262 0 0 1-.759.061.585.585 0 0 1-.186-.066.63.63 0 0 1-.373-.226.604.604 0 0 1-.273-.338 1.285 1.285 0 0 1-.134-.439c-.018-.208 0-.514.058-.916.014-.164.102-.615.268-1.349l.753-3.004.219-.873.055-.485a.138.138 0 0 0-.047-.098l-.067-.095a.141.141 0 0 0-.064-.04c-.02-.01-.032-.012-.04-.018l-.12-.04a.743.743 0 0 0-.241.04l-.253.115-.373.338-.631.74-.323-.205c.253-.408.503-.743.747-1.006a4.26 4.26 0 0 1 .815-.681c.149-.087.277-.156.387-.211.111-.055.192-.093.25-.11.233-.066.44-.098.609-.098.116 0 .233.02.346.058.122.072.227.15.306.242.183.168.288.42.317.757.014.17-.006.405-.055.71a4.626 4.626 0 0 1-.085.512 8.738 8.738 0 0 1-.163.627l-.788 3.091c-.032.116-.082.31-.149.575l-.11.433-.053.575a.532.532 0 0 0 .032.168c.012.029.05.072.11.133l.074.037.07.04.209.018c.09 0 .157-.003.198-.012.044-.011.102-.034.177-.063.146-.04.3-.119.46-.237a2.7 2.7 0 0 0 .59-.523c.225-.22.472-.52.743-.898.27-.379.51-.725.719-1.046.07-.11.186-.318.358-.618.107-.191.18-.324.22-.402.158-.283.318-.687.487-1.205.14-.465.3-1.086.477-1.854l.178-.876h1.548c.198 0 .378-.02.55-.06.166-.035.326-.098.468-.182a.758.758 0 0 0 .294-.32.981.981 0 0 0 .152-.42l-.027-.289a.899.899 0 0 0-.11-.3 1.01 1.01 0 0 0-.198-.243l-.207-.156h-.128c-.023.026-.035.046-.035.06l-.014.076.067.107a.479.479 0 0 1 .099.234l.011.115.006.078a.206.206 0 0 0-.014.07.525.525 0 0 1-.285.358l-.242.075-.27.02a.63.63 0 0 1-.242-.072.827.827 0 0 1-.288-.225l-.073-.156-.02-.246.014-.297a.606.606 0 0 1 .16-.28l.18-.177.219-.08h.198l.18-.041a.91.91 0 0 1 .317.04.29.29 0 0 1 .14.038l.13.04c.085.02.15.055.187.107l.178.136.13.159.137.222.096.237a.83.83 0 0 1 .053.263c.009.095-.009.249-.047.462-.064.177-.116.29-.16.341-.075.107-.16.197-.25.269a1.004 1.004 0 0 1-.306.173l-.163.07-.148.046-.343.06h-.431a.214.214 0 0 0-.116.026" fill="#000"/><path d="M281.628 32.038l-.908 4.452a30.152 30.152 0 0 1 1.534-2.236c.463-.61.856-1.057 1.179-1.346a3.71 3.71 0 0 1 .972-.65 2.33 2.33 0 0 1 .969-.22c.183 0 .346.029.491.093.146.06.286.15.41.265.251.246.394.564.426.95.014.145.02.255.017.324 0 .073-.012.208-.038.413a7.899 7.899 0 0 1-.16.815l-.99 4.059-.124.575-.035.28.029.127a.25.25 0 0 0 .058.098l.084.067.082.02.113-.029.14-.086c.058-.061.134-.136.218-.229.09-.098.17-.19.236-.289.148-.187.309-.43.477-.73l.32.187a8.55 8.55 0 0 1-.78 1.101c-.261.31-.509.549-.75.725a3.553 3.553 0 0 1-.239.13 2.786 2.786 0 0 1-.268.124 1.396 1.396 0 0 1-.45.096.825.825 0 0 1-.324-.061.793.793 0 0 1-.253-.15.664.664 0 0 1-.172-.252 1.011 1.011 0 0 1-.081-.335c-.026-.297.055-.832.244-1.6l.958-3.938.13-.641a2.71 2.71 0 0 0 .027-.497.393.393 0 0 0-.055-.173.259.259 0 0 0-.12-.145.403.403 0 0 0-.163-.09l-.192-.037a.891.891 0 0 0-.323.064 1.94 1.94 0 0 0-.366.179c-.521.297-1.028.78-1.525 1.447-.265.338-.527.722-.789 1.156-.23.381-.498.86-.803 1.43l-.393.864a5.73 5.73 0 0 0-.128.36c-.04.13-.093.33-.166.593l-.32 1.603h-1.46l1.274-6.22.16-.846.038-.436a.381.381 0 0 0-.064-.182.369.369 0 0 0-.134-.176.539.539 0 0 0-.19-.113 1.263 1.263 0 0 0-.261-.055l-.166.012-.25.028-.379.058-.108-.39 3.341-.543zm43.981 0l-.908 4.452a30.152 30.152 0 0 1 1.533-2.236c.463-.61.856-1.057 1.18-1.346a3.71 3.71 0 0 1 .971-.65c.326-.148.652-.22.97-.22a1.2 1.2 0 0 1 .49.093c.146.06.286.15.411.265.253.246.393.564.425.95.012.145.018.255.018.324 0 .073-.012.208-.038.413a8.046 8.046 0 0 1-.163.815l-.987 4.059-.125.575-.035.28.03.127a.25.25 0 0 0 .058.098l.084.067.081.02.114-.029.14-.086.218-.229c.09-.098.166-.19.236-.289.148-.187.308-.43.474-.73l.32.187a8.273 8.273 0 0 1-.777 1.101c-.262.31-.51.549-.75.725a4.507 4.507 0 0 1-.507.254 1.401 1.401 0 0 1-.451.096.825.825 0 0 1-.323-.061.763.763 0 0 1-.253-.15.633.633 0 0 1-.172-.252 1.092 1.092 0 0 1-.085-.335c-.023-.297.059-.832.248-1.6l.957-3.938.128-.641c.03-.225.038-.39.03-.497a.393.393 0 0 0-.056-.173.27.27 0 0 0-.12-.145.403.403 0 0 0-.162-.09l-.192-.037a.906.906 0 0 0-.326.064 2.01 2.01 0 0 0-.364.179c-.52.297-1.027.78-1.525 1.447-.265.338-.527.722-.791 1.156-.227.381-.495.86-.8 1.43l-.394.864a5.73 5.73 0 0 0-.128.36c-.04.13-.093.33-.165.593l-.32 1.603h-1.461l1.274-6.22.16-.846.038-.436a.381.381 0 0 0-.064-.182.369.369 0 0 0-.134-.176.539.539 0 0 0-.189-.113 1.263 1.263 0 0 0-.262-.055l-.166.012-.25.028-.378.058-.108-.39 3.34-.543zm-6.632 2.36a2.777 2.777 0 0 0-.175-.783 1.851 1.851 0 0 0-.396-.615 1.705 1.705 0 0 0-.538-.37 1.776 1.776 0 0 0-.64-.124c-.463 0-.902.176-1.324.523-.396.332-.772.85-1.12 1.557a9.377 9.377 0 0 0-.728 2.077 7.122 7.122 0 0 0-.12 2.048c.027.307.09.584.195.832.102.249.233.454.39.619.172.156.355.28.562.378.224.081.44.124.658.124.91 0 1.71-.684 2.395-2.062.68-1.375.963-2.777.84-4.204zm1.705.711c.04.506.02.99-.067 1.468a6.183 6.183 0 0 1-.46 1.43 5.46 5.46 0 0 1-.835 1.288 5.502 5.502 0 0 1-1.15.988c-.43.277-.867.485-1.312.627a4.276 4.276 0 0 1-1.327.214c-.44 0-.853-.07-1.228-.211a2.993 2.993 0 0 1-1.013-.618 3.44 3.44 0 0 1-.733-.988 3.709 3.709 0 0 1-.204-.584 3.79 3.79 0 0 1-.116-.662 5.28 5.28 0 0 1 .087-1.435c.044-.243.105-.477.186-.717.082-.237.184-.482.303-.734.23-.465.512-.895.859-1.285a5.33 5.33 0 0 1 1.16-1.005c.874-.564 1.744-.847 2.611-.847.442 0 .841.072 1.193.223.35.13.69.343 1.016.644.297.266.535.586.71.97.078.174.148.37.204.581.058.217.096.43.116.653zm-10.066 3.692a7.251 7.251 0 0 1-.925 1.04 5.893 5.893 0 0 1-.999.728 4.38 4.38 0 0 1-1.021.407c-.367.096-.74.148-1.123.148a3.9 3.9 0 0 1-1.255-.188 2.675 2.675 0 0 1-.975-.578 2.972 2.972 0 0 1-.663-.916c-.16-.34-.26-.74-.297-1.196a5.428 5.428 0 0 1 .079-1.485c.096-.502.262-.985.5-1.458a6.053 6.053 0 0 1 2.052-2.352c.44-.292.887-.514 1.344-.673.454-.159.908-.24 1.36-.24.343 0 .654.038.925.107.267.072.506.182.704.332.381.29.588.653.626 1.086.035.402-.061.743-.288 1.029a.74.74 0 0 1-.638.32.743.743 0 0 1-.288-.049.604.604 0 0 1-.215-.135.72.72 0 0 1-.233-.65l.038-.165.102-.165.166-.205.171-.17.088-.13.02-.098.012-.104a.374.374 0 0 0-.059-.18.6.6 0 0 0-.18-.167 1.218 1.218 0 0 0-.34-.139 2.274 2.274 0 0 0-.466-.049c-.643 0-1.263.223-1.851.67a4 4 0 0 0-.812.827 5.43 5.43 0 0 0-.64 1.098 7.851 7.851 0 0 0-.477 1.513 5.981 5.981 0 0 0-.067 1.508c.014.173.038.332.07.471a2.253 2.253 0 0 0 .623 1.11c.191.176.427.32.71.427.276.098.573.147.893.147.509 0 1-.121 1.466-.367.207-.11.449-.289.73-.531a8.61 8.61 0 0 0 .827-.83l.306.252zm27.111-2.68a4.975 4.975 0 0 0-.303.933c-.128.563-.172 1.066-.134 1.514.061.734.32 1.332.771 1.788.184.211.413.37.687.48.274.11.533.164.774.164.274 0 .53-.04.774-.121.239-.08.536-.228.882-.433.37-.257.777-.656 1.22-1.19.445-.535.893-1.162 1.35-1.881l-.26 1.254c-.15.62-.206 1.12-.174 1.496.023.298.113.514.262.65a.631.631 0 0 0 .218.165c.082.04.169.06.26.06.148 0 .31-.046.488-.135a2.2 2.2 0 0 0 .506-.382c.34-.32.664-.817.981-1.476l-.358-.196-.358.76c-.099.204-.186.329-.253.366-.079.084-.14.127-.186.127-.047-.005-.079-.031-.102-.075l-.05-.09-.005-.074c-.01-.11.005-.272.04-.48 0-.11.012-.217.03-.318a6.24 6.24 0 0 1 .098-.439l.513-2.47-1.66.003a18.83 18.83 0 0 1-.829 1.537c-.977 1.467-1.845 2.204-2.601 2.204a1.29 1.29 0 0 1-.495-.115 1.165 1.165 0 0 1-.422-.284 1.247 1.247 0 0 1-.311-.433 2.868 2.868 0 0 1-.117-.358 1.899 1.899 0 0 1-.046-.315c-.064-.754.038-1.5.311-2.236h-1.501zm0 0l.14-.32.156-.35a7.23 7.23 0 0 1 1.036-1.5c.483-.496.943-.895 1.391-1.19.451-.292.85-.497 1.205-.618.405-.147.792-.22 1.147-.22.171 0 .358.024.564.067.204.043.347.098.414.153.148.06.296.156.448.292l.457.439.707-3.504-2.087-.018.125-.615h2.087l.05-.202c-.006-.05.017-.096.026-.15l.125-.775-.006-.274a.477.477 0 0 0-.169-.355.502.502 0 0 0-.253-.116l-.309-.06c-.142-.03-.244-.01-.302 0l-.457.06-.032-.381 3.34-.555-.587 2.808h1.266l-.152.615-1.213.003-1.446 6.766h-1.66l.132-.3.087-.234c.207-.68.291-1.277.247-1.789a1.587 1.587 0 0 0-.154-.563 1.608 1.608 0 0 0-.314-.456 1.647 1.647 0 0 0-.483-.275 1.635 1.635 0 0 0-.573-.104c-.903 0-1.781.676-2.637 2.031a9.817 9.817 0 0 0-.815 1.69h-1.501zm18.063-3.715l-.052.211-1.155 5.36a16.19 16.19 0 0 0-.212 1.077l-.044.612.012.136.046.092c.03.035.082.061.163.076.105 0 .207-.05.309-.148.032-.02.122-.136.273-.35l.492-.817.32.214c-.396.765-.832 1.335-1.312 1.71a1.9 1.9 0 0 1-.443.24 1.3 1.3 0 0 1-.462.08.814.814 0 0 1-.34-.051.968.968 0 0 1-.245-.17c-.061-.032-.114-.105-.155-.214a.87.87 0 0 1-.084-.318l-.015-.156-.017-.226.038-.242.017-.234.053-.231.072-.373.108-.494.207-.855.253-1.107a30.267 30.267 0 0 1-1.414 2.262c-.402.59-.795 1.072-1.182 1.44-.396.343-.748.586-1.065.73-.154.07-.326.127-.506.17a2.284 2.284 0 0 1-.76.061.585.585 0 0 1-.186-.066.63.63 0 0 1-.373-.226.604.604 0 0 1-.273-.338 1.285 1.285 0 0 1-.134-.439c-.018-.208 0-.514.058-.916.015-.164.102-.615.268-1.349l.754-3.004.218-.873.055-.485a.138.138 0 0 0-.046-.098l-.064-.095a.18.18 0 0 0-.064-.04c-.02-.01-.035-.012-.044-.018l-.12-.04a.743.743 0 0 0-.241.04l-.253.115-.373.338-.631.74-.32-.205a6.4 6.4 0 0 1 .745-1.006 4.26 4.26 0 0 1 .815-.681c.148-.087.276-.156.387-.211.11-.055.192-.093.25-.11.236-.066.44-.098.611-.098.113 0 .23.02.343.058.123.072.227.15.306.242.183.168.288.42.317.757.015.17-.006.405-.055.71-.015.142-.04.313-.085.512a8.738 8.738 0 0 1-.163.627l-.788 3.091c-.032.116-.082.31-.146.575-.04.147-.078.292-.113.433l-.053.575a.532.532 0 0 0 .032.168c.012.029.05.072.111.133l.073.037.07.04.21.018c.09 0 .156-.003.2-.012.04-.011.099-.034.175-.063.145-.04.3-.119.46-.237a2.7 2.7 0 0 0 .59-.523c.224-.22.472-.52.742-.898.27-.379.51-.725.719-1.046.07-.11.186-.318.358-.618.11-.191.18-.324.221-.402.157-.283.32-.687.486-1.205.14-.465.303-1.086.477-1.854l.18-.876h1.546c.198 0 .378-.02.55-.06.166-.035.326-.098.469-.182a.745.745 0 0 0 .294-.32.944.944 0 0 0 .15-.42l-.022-.289a.957.957 0 0 0-.114-.3.944.944 0 0 0-.198-.243l-.206-.156h-.128c-.024.026-.035.046-.035.06l-.015.076.067.107a.517.517 0 0 1 .102.234l.009.115c.002.03.002.052.005.078a.323.323 0 0 0-.014.07.525.525 0 0 1-.285.358l-.242.075-.268.02a.627.627 0 0 1-.244-.072.827.827 0 0 1-.288-.225l-.073-.156-.02-.246.014-.297a.67.67 0 0 1 .16-.28l.184-.177.215-.08h.198l.18-.041a.92.92 0 0 1 .318.04c.046 0 .093.012.14.038l.13.04c.085.02.149.055.186.107l.178.136.13.159.138.222.096.237a.83.83 0 0 1 .052.263c.009.095-.009.249-.046.462-.065.177-.117.29-.16.341-.076.107-.16.197-.25.269a1.004 1.004 0 0 1-.306.173l-.163.07-.149.046-.34.06h-.434a.21.21 0 0 0-.116.026m1.542 4.14h1.743l-.006.049-.009.026a8.112 8.112 0 0 0-.137 1.026c-.023.346-.02.69.01 1.03.025.316.086.593.182.83.096.243.23.454.402.633.178.164.358.289.553.381.244.092.468.139.655.139.462 0 .893-.17 1.289-.509.396-.338.765-.866 1.112-1.583.346-.72.587-1.392.718-2.022h1.758c-.093.5-.253.982-.474 1.441a4.537 4.537 0 0 1-.798 1.283 5.304 5.304 0 0 1-1.17 1.008c-.38.255-.82.46-1.315.624a4.696 4.696 0 0 1-1.327.194c-.468 0-.873-.067-1.22-.194a3.675 3.675 0 0 1-1.035-.644c-.34-.332-.57-.653-.699-.973a3.456 3.456 0 0 1-.329-1.24 4.919 4.919 0 0 1 .073-1.438l.024-.061zm0-.009c.101-.485.261-.947.48-1.384.273-.528.558-.959.85-1.288a5.738 5.738 0 0 1 1.155-1.005 5.439 5.439 0 0 1 1.31-.63 4.276 4.276 0 0 1 1.312-.211c.78 0 1.443.225 1.996.679h.11c.26 0 .446-.015.554-.04.192-.032.387-.11.576-.226.128-.06.256-.167.387-.32.13-.157.186-.307.174-.451l-.026-.315-.014-.17-.05-.119a1.064 1.064 0 0 0-.215-.246c-.03-.04-.108-.092-.236-.158h-.102c-.026.011-.04.037-.043.078l-.012.08a.29.29 0 0 0 .076.096c.043.072.078.15.099.23l.008.125a.806.806 0 0 1-.008.182.357.357 0 0 1-.125.205.509.509 0 0 1-.184.136l-.238.078-.25.02a.589.589 0 0 1-.266-.078 1.6 1.6 0 0 1-.264-.228l-.09-.176-.024-.263-.009-.101.035-.165a.707.707 0 0 1 .166-.277l.18-.165.222-.08.195-.038h.515a.843.843 0 0 1 .244.095c.088.02.157.058.216.11a.62.62 0 0 1 .154.136l.148.156.07.095.076.127.102.234.02.263a.922.922 0 0 1-.058.436 1.934 1.934 0 0 1-.178.364.74.74 0 0 1-.264.231.967.967 0 0 1-.318.185.73.73 0 0 1-.331.116l-.3.06h-.242l-.099.04h-.055a3.4 3.4 0 0 1 .623.96c.166.375.265.763.3 1.164.037.44.011.925-.082 1.453h-1.76a7.622 7.622 0 0 0 .136-2.178 3.873 3.873 0 0 0-.183-.792 2.151 2.151 0 0 0-.376-.598 1.67 1.67 0 0 0-.547-.346 1.783 1.783 0 0 0-.657-.148c-.224 0-.446.044-.667.128-.22.08-.436.21-.654.384-.41.36-.783.884-1.112 1.568a9.093 9.093 0 0 0-.707 1.982h-1.743zm3.891-10.047h2.203l.425 3.266h-.34zm9.49 5.548l-.908 4.452a30.152 30.152 0 0 1 1.534-2.236c.462-.61.855-1.057 1.178-1.346a3.71 3.71 0 0 1 .972-.65c.33-.148.652-.22.97-.22.183 0 .346.029.494.093.143.06.282.15.408.265.253.246.392.564.424.95.015.145.02.255.018.324 0 .073-.012.208-.038.413a7.899 7.899 0 0 1-.16.815l-.99 4.059-.125.575-.034.28.029.127a.25.25 0 0 0 .058.098l.084.067.082.02.113-.029.14-.086c.058-.061.134-.136.218-.229.09-.098.169-.19.236-.289.148-.187.308-.43.477-.73l.32.187a8.55 8.55 0 0 1-.78 1.101c-.262.31-.509.549-.75.725a3.553 3.553 0 0 1-.24.13c-.107.058-.197.095-.264.124a1.433 1.433 0 0 1-.454.096.835.835 0 0 1-.323-.061.793.793 0 0 1-.253-.15.664.664 0 0 1-.172-.252 1.011 1.011 0 0 1-.081-.335c-.027-.297.055-.832.244-1.6l.958-3.938.13-.641c.027-.225.035-.39.027-.497a.393.393 0 0 0-.056-.173.259.259 0 0 0-.119-.145.403.403 0 0 0-.163-.09l-.189-.037a.894.894 0 0 0-.326.064c-.116.04-.236.1-.367.179-.52.297-1.027.78-1.525 1.447-.264.338-.526.722-.788 1.156-.23.381-.495.86-.803 1.43l-.393.864a4.355 4.355 0 0 0-.125.36c-.044.13-.096.33-.17.593l-.32 1.603h-1.46l1.274-6.22.16-.846.041-.436a.42.42 0 0 0-.067-.182.369.369 0 0 0-.134-.176.514.514 0 0 0-.189-.113 1.221 1.221 0 0 0-.262-.055l-.165.012-.25.028-.376.058-.11-.39 3.34-.543zm61.959-6.118l-2.15 10.56A28.274 28.274 0 0 1 432 34.255c.434-.584.827-1.023 1.173-1.33.315-.28.638-.5.97-.652.334-.153.66-.234.98-.234.157 0 .306.029.451.092a1.336 1.336 0 0 1 .69.682c.081.165.128.35.145.558.012.147.018.26.018.338 0 .072-.009.184-.03.338a7.025 7.025 0 0 1-.162.87l-.966 4.04-.137.576-.035.242c.003.052.011.093.029.116l.055.098.085.066.099.02.113-.028.14-.098c.073-.067.145-.14.22-.226.074-.08.152-.17.225-.271.148-.185.3-.413.454-.68l.32.186-.166.263c-.058.09-.122.179-.189.271-.148.205-.3.402-.463.584-.07.083-.151.173-.241.271a4.61 4.61 0 0 1-.242.243 2.54 2.54 0 0 1-.425.312l-.387.162c-.113.04-.227.06-.337.06a.844.844 0 0 1-.597-.222.862.862 0 0 1-.276-.584 2.46 2.46 0 0 1 .05-.61c.031-.27.104-.603.209-.993l.946-3.917a4.9 4.9 0 0 0 .148-.922 1.527 1.527 0 0 0 0-.231.449.449 0 0 0-.05-.173.582.582 0 0 0-.11-.136.453.453 0 0 0-.169-.093l-.19-.037c-.09 0-.203.02-.34.058l-.165.069a1.161 1.161 0 0 0-.19.095 4.2 4.2 0 0 0-.73.595c-.221.22-.489.532-.824.934-.075.086-.244.346-.503.765l-1.01 1.67c-.12.222-.227.462-.326.716a5.081 5.081 0 0 0-.235.792l-.42 2.002h-1.455l2.294-11.197.474-2.309a.53.53 0 0 0-.076-.225.794.794 0 0 0-.174-.214.895.895 0 0 0-.248-.138.804.804 0 0 0-.297-.052c-.11 0-.3.017-.564.054l-.204.032-.035-.39 3.353-.543zm-11.283 6.118l-.908 4.452a30.152 30.152 0 0 1 1.534-2.236c.463-.61.855-1.058 1.178-1.347a3.71 3.71 0 0 1 .972-.65c.326-.147.652-.22.97-.22.183 0 .346.03.491.093.146.06.286.15.41.266.254.246.394.563.426.953.011.142.02.252.017.321 0 .072-.012.208-.038.413a8.774 8.774 0 0 1-.16.815l-.99 4.059-.124.575-.035.28.029.127a.25.25 0 0 0 .058.098l.084.067.082.02.113-.03.14-.086c.058-.06.134-.136.218-.228.09-.098.166-.19.236-.289.148-.188.308-.43.477-.73l.32.187a8.55 8.55 0 0 1-.78 1.1c-.261.31-.509.55-.75.726a3.046 3.046 0 0 1-.239.13 2.786 2.786 0 0 1-.268.124c-.171.06-.323.095-.45.095a.825.825 0 0 1-.324-.06.793.793 0 0 1-.253-.15.633.633 0 0 1-.172-.252 1.011 1.011 0 0 1-.081-.335c-.026-.298.055-.832.244-1.6l.958-3.938.128-.641c.029-.226.038-.39.029-.497a.393.393 0 0 0-.055-.174.282.282 0 0 0-.12-.144.403.403 0 0 0-.163-.09l-.192-.037a.891.891 0 0 0-.323.063 1.94 1.94 0 0 0-.367.18c-.52.297-1.027.78-1.524 1.447-.265.338-.527.722-.792 1.155-.227.382-.495.861-.8 1.43l-.393.864a5.73 5.73 0 0 0-.128.361c-.04.13-.093.33-.166.595l-.32 1.6h-1.461l1.275-6.219.16-.846.037-.437a.353.353 0 0 0-.064-.182.369.369 0 0 0-.133-.176.586.586 0 0 0-.19-.112 1.118 1.118 0 0 0-.261-.052l-.166.008-.25.03-.379.057-.108-.387 3.341-.546zm-9.49-5.55h2.203l.425 3.268h-.34l-2.288-3.268zm1.383 6.249c-.222 0-.451.052-.69.15a3.2 3.2 0 0 0-.71.425 4.55 4.55 0 0 0-.928.99 9.865 9.865 0 0 0-.798 1.402c-.477 1.06-.678 2.02-.608 2.874.02.211.067.399.137.575.075.176.18.32.323.436.276.255.576.379.893.379.39 0 .798-.124 1.217-.373.419-.251.85-.635 1.286-1.153a6.88 6.88 0 0 0 1.109-2.06 5.33 5.33 0 0 0 .21-.97c.04-.318.046-.653.014-1.002l-.009-.136a2.57 2.57 0 0 0-.148-.676 1.373 1.373 0 0 0-.306-.491c-.256-.246-.588-.37-.992-.37zm3.562-.465l-1.28 6.58-.17.873a.442.442 0 0 0-.04.205l.029.136.058.11c.038.034.087.06.154.075.061 0 .134-.046.224-.136.061-.066.152-.205.277-.419.096-.167.215-.41.36-.728l.353.231a5.264 5.264 0 0 1-.515.855 3.385 3.385 0 0 1-.539.596 2.297 2.297 0 0 1-.559.358 1.441 1.441 0 0 1-.535.115.805.805 0 0 1-.565-.202.778.778 0 0 1-.168-.245 1.385 1.385 0 0 1-.079-.359c-.006-.069-.009-.153-.014-.248 0-.093.005-.194.017-.295.023-.254.038-.393.044-.419l.06-.291.16-.746c-.22.292-.433.55-.63.783-.201.228-.4.442-.606.641a5.903 5.903 0 0 1-1.176.913 3.679 3.679 0 0 1-.812.353 3.144 3.144 0 0 1-.832.115 2.06 2.06 0 0 1-.75-.138 2.099 2.099 0 0 1-.658-.425c-.416-.381-.655-.91-.713-1.583a4.595 4.595 0 0 1 .122-1.554c.12-.526.326-1.072.62-1.644a7.237 7.237 0 0 1 1.015-1.505 7.999 7.999 0 0 1 1.354-1.2c.363-.25.739-.45 1.126-.591.384-.142.76-.211 1.129-.211.14 0 .247.003.317.008.067.006.163.03.282.067.166.04.33.107.492.2.16.095.303.213.42.363.116.15.226.338.331.564l.21-.971 1.487-.231zm-14.24-6.327l-2.153 10.536a28.274 28.274 0 0 1 1.478-2.227c.434-.584.827-1.023 1.173-1.33.314-.28.637-.5.97-.652.334-.153.657-.234.98-.234.157 0 .305.029.45.092a1.336 1.336 0 0 1 .69.682c.082.165.126.35.143.558.015.147.02.26.02.338 0 .072-.008.184-.029.338a7.026 7.026 0 0 1-.162.87l-.967 4.04-.136.576-.038.242a.25.25 0 0 0 .032.116l.055.098.084.066.1.02.113-.028.14-.098a3.885 3.885 0 0 0 .445-.497c.148-.185.3-.413.454-.68l.32.186c-.055.083-.108.17-.166.263-.058.09-.122.179-.19.271a7.877 7.877 0 0 1-.462.584c-.07.083-.151.173-.241.271-.064.07-.146.153-.245.243a2.407 2.407 0 0 1-.422.312l-.387.162c-.113.04-.227.06-.337.06a.844.844 0 0 1-.597-.222.862.862 0 0 1-.276-.584c-.012-.15.002-.352.049-.61.032-.27.105-.603.21-.993l.945-3.917a4.9 4.9 0 0 0 .149-.922 1.527 1.527 0 0 0 0-.231.449.449 0 0 0-.05-.173.582.582 0 0 0-.11-.136.453.453 0 0 0-.17-.093l-.188-.037c-.09 0-.204.02-.34.058l-.167.069a1.161 1.161 0 0 0-.189.095c-.215.13-.46.33-.733.595-.218.22-.489.532-.82.934-.076.086-.245.346-.504.765l-1.01 1.67c-.12.222-.23.462-.329.716a5.41 5.41 0 0 0-.233.792l-.419 2.002h-1.455l2.293-11.197.475-2.283a.53.53 0 0 0-.076-.225.743.743 0 0 0-.419-.352.819.819 0 0 0-.3-.052c-.11 0-.3.017-.561.054l-.207.032-.032-.39 3.352-.543zm-5.732 2.239l-.556 2.64h1.28l-.102.624h-1.312l-1.49 7.257-.216.798c-.04.205-.058.355-.049.453l.012.136.06.11.07.055.094.02c.13 0 .302-.107.512-.32l.282-.4.483-.797.344.243a9.033 9.033 0 0 1-.696 1.075 3.447 3.447 0 0 1-.707.713c-.151.093-.308.17-.48.237a1.54 1.54 0 0 1-.51.095.941.941 0 0 1-.352-.063.935.935 0 0 1-.296-.18 1.229 1.229 0 0 1-.23-.311 1.24 1.24 0 0 1-.093-.387c-.03-.341.035-.882.186-1.612l1.493-7.122h-1.502l.064-.378c.346-.098.664-.217.949-.35.29-.138.556-.306.8-.505.221-.18.46-.43.719-.774.259-.338.527-.757.812-1.257h.43zm53.505 10.617a6.913 6.913 0 0 1-.928 1.037 5.63 5.63 0 0 1-.995.731 4.453 4.453 0 0 1-2.145.555 3.93 3.93 0 0 1-1.257-.188 2.7 2.7 0 0 1-.975-.578 2.963 2.963 0 0 1-.66-.915 3.483 3.483 0 0 1-.3-1.196 5.317 5.317 0 0 1 .081-1.485c.093-.503.26-.985.5-1.46a6.03 6.03 0 0 1 2.052-2.35c.44-.293.885-.515 1.342-.674.454-.159.91-.24 1.362-.24.343 0 .652.038.922.107.271.072.507.182.708.332.378.29.587.653.622 1.087.035.401-.058.742-.285 1.028a.754.754 0 0 1-.637.32.734.734 0 0 1-.288-.048.58.58 0 0 1-.216-.136.695.695 0 0 1-.238-.474.55.55 0 0 1 .006-.176l.034-.165.105-.164.166-.206.172-.17.087-.13.02-.098.012-.104a.408.408 0 0 0-.058-.18.58.58 0 0 0-.183-.167 1.195 1.195 0 0 0-.338-.139 2.296 2.296 0 0 0-.466-.049c-.646 0-1.263.223-1.85.67-.303.226-.574.5-.812.827-.117.156-.23.323-.338.502a4.96 4.96 0 0 0-.303.596c-.21.476-.37.985-.477 1.513a6.03 6.03 0 0 0-.07 1.508c.015.174.038.333.07.471a2.341 2.341 0 0 0 .623 1.11c.192.176.428.32.713.427.273.098.573.147.893.147.51 0 .998-.12 1.467-.37.207-.106.448-.288.73-.528a8.61 8.61 0 0 0 .827-.83l.305.252zm1.612-2.222h1.743a.145.145 0 0 1-.014.058c-.064.372-.11.733-.134 1.083-.02.344-.02.673.006.985.026.312.087.584.183.818.093.234.227.439.402.62.177.165.358.29.55.38.247.089.474.135.675.135.896 0 1.69-.688 2.39-2.068a9.18 9.18 0 0 0 .712-2.011h1.76a7.152 7.152 0 0 1-.185.696 8.269 8.269 0 0 1-.271.72 5.7 5.7 0 0 1-.83 1.288 5.224 5.224 0 0 1-1.17 1 5.18 5.18 0 0 1-1.303.623 4.43 4.43 0 0 1-1.31.191c-.48 0-.896-.063-1.245-.19a2.96 2.96 0 0 1-1.007-.648 2.799 2.799 0 0 1-.719-.956 3.57 3.57 0 0 1-.332-1.248 5.71 5.71 0 0 1 .076-1.439l.023-.037zm7.174-8.222l.969 3.109h-.157l-1.857-2.031-2.997 2.03h-.326l2.849-3.108h1.519zm-7.174 8.219a5.36 5.36 0 0 1 .478-1.407c.276-.543.561-.976.87-1.294.375-.428.76-.76 1.158-1 .85-.572 1.717-.858 2.599-.858.215 0 .416.018.605.052.19.03.39.087.597.174a3.3 3.3 0 0 1 1.012.632c.291.272.527.607.705 1 .18.355.288.763.325 1.216.038.44.015.93-.078 1.468l-1.758.017a7.256 7.256 0 0 0 .134-2.187 2.597 2.597 0 0 0-.183-.794 1.816 1.816 0 0 0-.379-.621c-.244-.188-.427-.307-.547-.353a1.663 1.663 0 0 0-.64-.124c-.486 0-.937.17-1.342.52-.407.344-.78.864-1.105 1.56a9.271 9.271 0 0 0-.708 1.999h-1.743zm13.38-4.538l-.908 4.452a30.152 30.152 0 0 1 1.533-2.236c.463-.61.856-1.057 1.179-1.346a3.71 3.71 0 0 1 .972-.65c.329-.148.652-.22.969-.22.183 0 .346.029.492.093.145.06.285.15.41.265.253.246.393.564.425.95.014.145.02.255.017.324 0 .073-.011.208-.037.413a7.899 7.899 0 0 1-.16.815l-.99 4.059-.125.575-.035.28.032.127c.017.046.035.081.058.098l.082.067.081.02.114-.029.14-.086c.06-.061.133-.136.218-.229.09-.098.168-.19.235-.289.149-.187.309-.43.478-.73l.32.187a8.55 8.55 0 0 1-.78 1.101c-.262.31-.51.549-.748.725-.05.029-.128.072-.242.13-.107.058-.198.095-.264.124a1.417 1.417 0 0 1-.454.096.835.835 0 0 1-.323-.061.699.699 0 0 1-.425-.402 1.011 1.011 0 0 1-.082-.335c-.026-.297.055-.832.245-1.6l.957-3.938.131-.641c.026-.225.035-.39.026-.497a.393.393 0 0 0-.055-.173.259.259 0 0 0-.12-.145.403.403 0 0 0-.162-.09l-.192-.037c-.102 0-.21.02-.323.064-.117.04-.236.1-.367.179-.521.297-1.027.78-1.525 1.447-.265.338-.527.722-.789 1.156-.23.381-.497.86-.8 1.43l-.396.864a5.73 5.73 0 0 0-.128.36c-.04.13-.093.33-.166.593l-.32 1.603h-1.46l1.274-6.22.16-.846.038-.436a.381.381 0 0 0-.064-.182.369.369 0 0 0-.134-.176.539.539 0 0 0-.19-.113 1.221 1.221 0 0 0-.261-.055l-.166.012-.25.028-.376.058-.11-.39 3.34-.543zm-171.994 6.97c-.163.466-.858.841-1.29 1.107l-.374.176-.146.043c-.04.01-.102.018-.19.032l-.357.03c-.544 0-.992-.2-1.333-.605-.346-.401-.5-.99-.466-1.776.032-.737.14-1.427.332-2.069.11-.35.227-.667.355-.953.125-.286.274-.56.437-.826.69-1.08 1.423-1.621 2.209-1.621.22 0 .436.05.646.144.21.096.395.249.564.451.163.208.285.44.352.708.082.271.146.592.1.953-.167 1.332-.446 3.088-.839 4.206zm1.51-6.988l-.18.899c-.535-.52-1.277-.841-2.223-.841-.58 0-1.156.144-1.732.436-.57.292-1.123.71-1.656 1.254a5.996 5.996 0 0 0-1.236 1.823 6.015 6.015 0 0 0-.49 2.16c-.008.24 0 .463.024.668.023.202.067.402.128.598.13.402.314.766.553 1.086.239.327.553.572.934.74.198.09.405.156.614.193.213.04.442.061.693.061l.393-.02c.896-.142 1.853-.529 2.57-1.159l-.679 3.276c-.061.298-.157.581-.233.873-.282 1.089-.832 2.866-2.628 3.013-.465.038-1.51-.18-1.79-.91a.881.881 0 0 0 .132-.052 1.12 1.12 0 0 0 .282-.2.696.696 0 0 0 .16-.291c.04-.139.067-.257.058-.358a.87.87 0 0 0-.12-.359 1.244 1.244 0 0 0-.22-.3.862.862 0 0 0-.32-.196 1.094 1.094 0 0 0-.37-.087.837.837 0 0 0-.384.092 1.052 1.052 0 0 0-.268.191c-.314.318-.227.85-.035 1.257 1.016 2.143 3.42 2.354 5.038 1.383 1.286-.774 1.53-2.004 1.915-3.426l.832-3.617.797-3.874c.044-.202.085-.404.11-.606l.225-1.274c.108-.43.198-1.202.535-1.563.195-.28.463-.413.754-.48l.224-.49-2.407.1zm-23.651 10.39c.11 0 .232.029.366.087.05.011.102.034.154.07.056.03.111.071.17.123.084.078.156.182.22.304a.749.749 0 0 1 .12.358.89.89 0 0 1-.058.358.603.603 0 0 1-.163.292.994.994 0 0 1-.28.2.809.809 0 0 1-.37.083.818.818 0 0 1-.366-.078c-.084-.026-.192-.095-.332-.205a1.421 1.421 0 0 1-.212-.295.883.883 0 0 1-.108-.355.961.961 0 0 1 .03-.358.627.627 0 0 1 .177-.304 1.02 1.02 0 0 1 .267-.187.802.802 0 0 1 .385-.093m111.377-3.402c-.163.466-.859.841-1.292 1.107l-.373.176-.145.043c-.038.01-.102.018-.19.032l-.357.03c-.545 0-.993-.2-1.333-.605-.347-.401-.5-.99-.466-1.776.032-.737.14-1.427.332-2.069.11-.35.227-.667.352-.953.128-.286.277-.56.442-.826.687-1.08 1.423-1.621 2.206-1.621.221 0 .437.05.646.144.21.096.396.249.565.451.163.208.285.44.352.708.081.271.145.592.102.953-.169 1.332-.448 3.088-.841 4.206zm1.51-6.988l-.18.899c-.533-.52-1.28-.841-2.224-.841-.579 0-1.155.144-1.731.436-.57.292-1.126.71-1.656 1.254a5.996 5.996 0 0 0-1.237 1.823 6.077 6.077 0 0 0-.489 2.16c-.008.24 0 .463.024.668.023.202.067.402.128.598.13.402.314.766.553 1.086.238.327.553.572.934.74.198.09.404.156.614.193.212.04.442.061.69.061l.395-.02c.897-.142 1.854-.529 2.57-1.159l-.678 3.276c-.061.298-.157.581-.233.873-.282 1.089-.832 2.866-2.628 3.013-.465.038-1.51-.18-1.79-.91a1.072 1.072 0 0 0 .413-.251.696.696 0 0 0 .16-.292 1.09 1.09 0 0 0 .059-.358.83.83 0 0 0-.12-.359 1.244 1.244 0 0 0-.22-.3.862.862 0 0 0-.32-.196 1.078 1.078 0 0 0-.37-.087.837.837 0 0 0-.384.092 1.034 1.034 0 0 0-.268.191c-.314.318-.227.85-.035 1.257 1.016 2.143 3.42 2.354 5.037 1.383 1.287-.774 1.528-2.004 1.915-3.426l.833-3.617.797-3.874c.044-.202.084-.404.11-.606l.225-1.274c.107-.43.197-1.202.532-1.563.198-.28.469-.413.757-.48l.224-.49-2.407.1z" fill="#000"/><g transform="translate(470.36 31.471)"><mask id="d" fill="#fff"><use xlink:href="#c"/></mask><path d="M7.133 7.537c-.163.465-.859.84-1.292 1.106l-.373.177-.148.043c-.038.009-.099.017-.186.032l-.358.029c-.544 0-.993-.2-1.333-.604-.346-.402-.5-.991-.466-1.777a8.62 8.62 0 0 1 .33-2.068c.113-.35.23-.668.354-.954.128-.286.277-.56.44-.826.69-1.08 1.426-1.62 2.208-1.62.222 0 .437.049.646.144.21.095.396.248.565.45.163.209.285.44.352.708.082.272.146.593.102.954-.169 1.332-.448 3.088-.841 4.206zM8.643.549l-.18.898C7.93.927 7.183.607 6.24.607c-.582 0-1.156.144-1.732.436-.573.292-1.126.71-1.656 1.254a6.006 6.006 0 0 0-1.24 1.822 6.013 6.013 0 0 0-.485 2.161c-.01.24-.003.463.023.668.023.202.067.401.125.598.13.401.317.765.556 1.086.238.326.553.572.934.74.198.089.404.155.614.193.212.04.442.06.69.06l.395-.02c.897-.141 1.854-.528 2.57-1.158l-.678 3.276c-.061.298-.157.58-.233.872-.282 1.09-.835 2.866-2.628 3.014-.465.037-1.51-.18-1.79-.91a1.056 1.056 0 0 0 .41-.251.7.7 0 0 0 .164-.293c.04-.138.064-.257.055-.358a.829.829 0 0 0-.116-.358 1.244 1.244 0 0 0-.221-.3 1.436 1.436 0 0 0-.17-.128.912.912 0 0 0-.153-.069 1.05 1.05 0 0 0-.367-.087.837.837 0 0 0-.384.093 1.01 1.01 0 0 0-.268.19c-.314.318-.227.85-.035 1.257 1.013 2.144 3.42 2.355 5.038 1.384 1.286-.774 1.527-2.005 1.914-3.426l.833-3.617.797-3.874c.044-.202.084-.405.11-.607l.225-1.274c.107-.43.195-1.202.532-1.563.198-.28.469-.413.757-.48l.224-.49-2.407.1z" fill="#000" mask="url(#d)"/></g><path d="M50.02 17.978a38.538 38.538 0 0 1-11.454 14.997l-.062.025-.06-.025a38.536 38.536 0 0 1-11.474-15.04C24.087 11.185 24.733 4.81 26.578 0a23.107 23.107 0 0 0 11.926 3.298c4.356 0 8.434-1.203 11.928-3.298 1.831 4.747 2.484 11.22-.412 17.978M24.412 20.26c4.835 4.33 8.49 9.813 10.682 15.88l.005.067-.043.053a38.204 38.204 0 0 1-17.88 6.476C9.856 43.43 3.996 40.8 0 37.494a23.958 23.958 0 0 0 6.86-10.603 24.257 24.257 0 0 0 .587-12.671c5.085-.3 11.444 1.094 16.965 6.04m-6.742 25.1A37.007 37.007 0 0 1 35.46 40l.065.015.034.058a39.874 39.874 0 0 1 .53 19.096C34.512 66.385 30.329 71.187 26.087 74a23.603 23.603 0 0 0-7.646-9.812c-3.487-2.603-7.442-4.06-11.441-4.443 1.264-4.958 4.464-10.616 10.67-14.385m22.231 13.763a39.877 39.877 0 0 1 .54-19.05l.034-.058.064-.015a36.984 36.984 0 0 1 17.83 5.382c6.189 3.771 9.34 9.346 10.631 14.362-4 .383-7.955 1.842-11.44 4.444A23.582 23.582 0 0 0 49.914 74c-4.197-2.767-8.443-7.646-10.013-14.877m19.927-17.234a38.6 38.6 0 0 1-17.785-6.322L42 35.516l.006-.067A38.236 38.236 0 0 1 52.69 19.907c5.503-4.815 11.749-6.154 16.882-5.871a23.25 23.25 0 0 0 .587 12.38A23.36 23.36 0 0 0 77 36.77c-3.929 3.202-9.863 5.807-17.172 5.118" fill="#F17D4C"/><path fill="#E6412F" d="M38.5 31l1.298 4.201H44L40.6 37.8l1.299 4.2-3.399-2.597L35.101 42l1.298-4.201L33 35.2h4.202z"/><path d="M197.678 32.05a3.165 3.165 0 0 0-.818.825c-.194.296-.401.67-.623 1.12-.148.27-.269.58-.361.932-.092.35-.24.674-.443.972-.204.297-.49.53-.859.702-.37.171-.897.201-1.58.094a2.13 2.13 0 0 0 .665-.581c.184-.243.337-.49.457-.742s.217-.495.29-.73c.076-.232.13-.412.168-.54.24-.809.596-1.385 1.066-1.727.472-.342 1.15-.45 2.038-.324zm-7.929 17.848h4.409l-2.301-4.562-2.108 4.562zm5.047 2.7h-5.766L186.7 57h-4.047l9.12-18.387h2.412L203 56.973h-5.848l-2.356-4.375zm-26.141-10.151a1.828 1.828 0 0 0-.472-.663 3.59 3.59 0 0 0-.762-.54 4.265 4.265 0 0 0-.956-.363 4.109 4.109 0 0 0-1.026-.136c-.85-.018-1.65.14-2.398.473a5.97 5.97 0 0 0-1.955 1.39c-.554.594-.993 1.31-1.317 2.146a7.48 7.48 0 0 0-.484 2.714c0 1.566.286 2.858.86 3.875.571 1.017 1.283 1.772 2.133 2.269.85.493 1.765.732 2.745.714a5.06 5.06 0 0 0 2.689-.81l-.028-5.022h5.128v7.264c-.979.27-1.862.485-2.647.647-.785.163-1.492.28-2.12.35a30.92 30.92 0 0 1-3.66.217c-3.252 0-5.895-.72-7.927-2.16-2.293-1.584-3.438-3.86-3.438-6.83 0-3.169 1.164-5.644 3.492-7.426 2.348-1.8 5.323-2.61 8.927-2.43 3.621.162 6.118 1.584 7.484 4.266l-4.268.055zm-37.923 14.526V38.558h3.132l12.032 10.692V38.558h3.936l-.028 18.415h-3.88l-10.562-9.37v9.37h-4.63zm-8.816-20.224c-.924.073-1.68.05-2.272-.067-.593-.117-1.087-.288-1.484-.513a3.602 3.602 0 0 1-.97-.77 14.8 14.8 0 0 1-.679-.837 9.222 9.222 0 0 1-.832 1.12 3.14 3.14 0 0 1-.998.757c-.388.188-.864.31-1.428.363-.563.055-1.279.037-2.147-.053.554-.198 1.007-.446 1.358-.743.35-.296.66-.608.928-.931.268-.324.523-.644.763-.959.24-.314.517-.58.832-.797h2.993c.332.235.633.505.901.81.267.307.54.612.818.92.277.305.592.607.942.903.351.298.776.564 1.275.797zm-5.793 4.158c-.37 0-.814.063-1.331.189s-1.011.414-1.483.864c-.47.45-.874 1.116-1.206 1.998-.332.881-.508 2.07-.526 3.564 0 1.459.176 2.623.526 3.496.352.874.767 1.549 1.247 2.026.48.477.97.792 1.47.945.499.153.906.229 1.22.229.831 0 1.525-.17 2.078-.512.555-.343.999-.81 1.33-1.404.334-.594.57-1.301.708-2.12.139-.819.208-1.706.208-2.66a17.5 17.5 0 0 0-.166-2.43c-.111-.791-.323-1.499-.638-2.119a3.945 3.945 0 0 0-1.29-1.499c-.543-.378-1.26-.567-2.147-.567zm10.673 6.642c0 1.458-.324 2.773-.97 3.943a9.776 9.776 0 0 1-2.51 2.97 11.515 11.515 0 0 1-3.437 1.862c-1.266.432-2.518.649-3.756.649-1.201 0-2.439-.203-3.714-.608a11.254 11.254 0 0 1-3.48-1.809 9.962 9.962 0 0 1-2.578-2.956c-.675-1.171-1.011-2.52-1.011-4.05.018-1.423.314-2.728.886-3.916a9.218 9.218 0 0 1 2.329-3.037c.98-.837 2.12-1.49 3.423-1.958a12.177 12.177 0 0 1 4.145-.703c1.608 0 3.067.24 4.38.716 1.312.477 2.435 1.144 3.368 1.998a8.845 8.845 0 0 1 2.162 3.051c.508 1.18.763 2.462.763 3.848zm-37.812-6.317v4.292h1.884v2.808l-1.884-.027v5.968l.86.027c1.163-.037 2.157-.225 2.98-.568.822-.341 1.496-.818 2.023-1.43a5.845 5.845 0 0 0 1.165-2.187c.249-.846.373-1.791.373-2.836 0-2.124-.484-3.663-1.455-4.617-.97-.955-2.453-1.43-4.45-1.43h-1.496zm-6.181 7.1H81v-2.808h1.803v-6.966h10.283c2.995 0 5.305.891 6.93 2.674 1.424 1.566 2.136 3.572 2.136 6.02 0 2.988-1.054 5.374-3.161 7.155-2.015 1.71-4.602 2.566-7.761 2.566h-8.427v-8.64zm73.955-17.004c-.933.709-2.302 1.06-4.108 1.06-2.051 0-3.635-.585-4.746-1.756-1.111-1.171-1.668-2.813-1.668-4.93 0-2.082.634-3.731 1.9-4.94 1.232-1.174 2.872-1.762 4.918-1.762 1.469 0 2.786.302 3.946.903-.2.67-.297 1.279-.297 1.816-.842-1.35-2.079-2.028-3.705-2.028-1.661 0-2.913.599-3.758 1.799-.741 1.05-1.112 2.46-1.112 4.233 0 1.696.367 3.07 1.102 4.129.833 1.211 2.041 1.817 3.634 1.817 1.398 0 2.737-.53 4.01-1.584l-.116 1.243zm-19.798 2.64c0-.295.1-.546.3-.752.2-.206.444-.31.732-.31.287 0 .53.105.726.31.199.208.296.457.296.752a.991.991 0 0 1-.306.727.977.977 0 0 1-.716.305c-.288 0-.53-.097-.732-.295a.991.991 0 0 1-.3-.737zm1.002-1.56c-2.064 0-3.702-.58-4.917-1.734-1.242-1.193-1.865-2.842-1.865-4.951 0-2.077.631-3.724 1.893-4.932 1.228-1.18 2.856-1.772 4.889-1.772 2.05 0 3.681.585 4.897 1.753 1.237 1.199 1.856 2.848 1.856 4.951 0 2.039-.633 3.672-1.902 4.896-1.236 1.194-2.856 1.788-4.851 1.788zm0-.72c1.686 0 2.95-.583 3.791-1.745.754-1.032 1.131-2.445 1.131-4.24 0-3.98-1.642-5.973-4.922-5.973-1.694 0-2.964.589-3.812 1.768-.753 1.052-1.129 2.477-1.129 4.278 0 1.79.379 3.195 1.138 4.215.842 1.13 2.11 1.696 3.803 1.696zm-19.97.452c.107-1.771.163-4.088.163-6.952 0-2.748-.056-4.73-.163-5.949.313.05.613.076.906.076.31 0 .598-.026.86-.076-.088.594-.134 2.193-.134 4.796v.737c.848.013 1.717.019 2.602.019h2.493c.826 0 1.653-.006 2.486-.019v-.737c0-1.734-.05-3.333-.145-4.796.252.05.539.076.86.076.32 0 .619-.026.907-.076-.102 1.452-.153 3.433-.153 5.949 0 2.526.051 4.843.153 6.952a5.396 5.396 0 0 0-.925-.072c-.298 0-.579.021-.842.072l.018-.258c.083-1.45.127-3.088.127-4.913v-1.356a108.367 108.367 0 0 0-7.58 0l-.001 1.463c0 1.67.01 2.833.028 3.49.018.693.055 1.219.107 1.574-.3-.05-.61-.072-.927-.072-.32 0-.598.021-.84.072zm-10.035 0c.077-1.143.117-2.698.117-4.658v-2.525c0-2.661-.04-4.57-.117-5.718.251.05.53.076.833.076.301 0 .593-.026.882-.076-.074.722-.11 1.778-.11 3.183v6.989c0 1.247.036 2.156.11 2.729a4.523 4.523 0 0 0-.846-.072 4.68 4.68 0 0 0-.869.072zm-8.708 1.828c0-.295.099-.546.3-.752a.98.98 0 0 1 .732-.31c.286 0 .529.105.724.31.199.208.298.457.298.752a.991.991 0 0 1-.307.727.98.98 0 0 1-.715.305c-.289 0-.531-.097-.733-.295a.991.991 0 0 1-.3-.737zM94.83 32.14A585.62 585.62 0 0 0 100.51 19h.35a485.827 485.827 0 0 0 5.317 13.14 5.44 5.44 0 0 0-.898-.092c-.274 0-.583.029-.933.092-.447-1.432-1.072-3.113-1.873-5.043a53.197 53.197 0 0 0-2.26-.037c-.991 0-1.75.013-2.276.037-.582 1.376-1.213 3.057-1.893 5.043a2.072 2.072 0 0 0-1.213 0zm3.42-5.873c.131 0 .361.003.69.01.305.006.539.009.7.009.276 0 .69-.003 1.237-.009.551-.01.96-.013 1.23-.013-.395-1.04-1.026-2.6-1.895-4.68l-1.962 4.683zM82.677 32.14c.058-2.14.089-3.824.089-5.054v-1.56c-.52 0-1.107.027-1.766.077v-.84c.376.03.964.047 1.766.047 0-2.11-.03-3.966-.09-5.57.565.023 1.027.038 1.392.038.394 0 .984-.017 1.772-.045a48.079 48.079 0 0 1 1.769-.047c1.053 0 1.885.069 2.5.21 1.318.308 2.325 1.036 3.022 2.178.629 1.027.943 2.27.943 3.734 0 2.312-.651 4.05-1.956 5.221-1.23 1.098-2.99 1.65-5.28 1.65-.297 0-.744-.014-1.342-.04a36.007 36.007 0 0 0-1.34-.037c-.131 0-.624.013-1.48.038zm1.65-.81c.79.06 1.433.092 1.928.092 4.01 0 6.016-1.917 6.016-5.753 0-1.963-.382-3.393-1.148-4.29-.82-.96-2.166-1.438-4.043-1.438-.964 0-1.88.031-2.756.091-.015.633-.04 2.225-.07 4.778h1.247c.746 0 1.53-.016 2.35-.048v.84a58.69 58.69 0 0 1-1.798-.037 62.047 62.047 0 0 0-1.799-.038c0 1.643.024 3.576.073 5.804z" fill="#018F41"/><path d="M195.678 9.739h1.054c.502 0 .847-.078 1.03-.227a.733.733 0 0 0 .275-.597.738.738 0 0 0-.5-.708c-.158-.063-.448-.092-.872-.092h-.987v1.624zm-.868 3.026h.868V10.48h.508c.307 0 .54.06.697.185.231.168.532.588.908 1.252l.477.848h1.06l-.655-1.052c-.315-.5-.58-.855-.796-1.067a1.437 1.437 0 0 0-.458-.286c.464-.035.838-.2 1.12-.491.279-.292.42-.632.42-1.027 0-.278-.084-.54-.252-.788a1.323 1.323 0 0 0-.677-.52c-.281-.1-.74-.148-1.371-.148h-1.849v5.38zm2.193-6.937a4.27 4.27 0 0 0-2.052.54 3.886 3.886 0 0 0-1.56 1.543 4.233 4.233 0 0 0-.563 2.092c0 .72.186 1.41.554 2.069a3.914 3.914 0 0 0 1.548 1.546c.662.37 1.353.554 2.073.554s1.412-.184 2.075-.554a3.899 3.899 0 0 0 1.542-1.546c.368-.66.55-1.348.55-2.069 0-.727-.184-1.422-.558-2.092a3.848 3.848 0 0 0-1.561-1.544c-.668-.359-1.35-.54-2.048-.54zm0-.828c.84 0 1.66.214 2.46.645a4.596 4.596 0 0 1 1.87 1.85c.444.8.667 1.636.667 2.508 0 .861-.218 1.691-.66 2.485a4.65 4.65 0 0 1-1.848 1.85 5.05 5.05 0 0 1-2.489.662 5.05 5.05 0 0 1-2.489-.662 4.668 4.668 0 0 1-1.85-1.85 5.01 5.01 0 0 1-.664-2.485c0-.872.225-1.707.672-2.508a4.581 4.581 0 0 1 1.874-1.85c.798-.43 1.62-.645 2.457-.645z" fill="#00AD5B"/></g></svg>