<svg id="Capa_1" enable-background="new 0 0 512 512" height="512" viewBox="0 0 512 512" width="512" xmlns="http://www.w3.org/2000/svg"><g><g><path clip-rule="evenodd" d="m155.453 502.44h300.248c1.15 0 2.205-.639 2.738-1.658l27.269-52.108c.47-.897.47-1.968 0-2.865l-27.269-52.137c-.533-1.019-1.588-1.658-2.739-1.658h-300.247l-30.927 49.653z" fill="#ffd772" fill-rule="evenodd"/></g><g><path clip-rule="evenodd" d="m155.453 502.44v-110.427-4.232c0-2.93-2.397-5.298-5.327-5.298h-118.889c-2.93 0-5.298 2.368-5.298 5.298v118.891c0 2.901 2.338 5.298 5.239 5.327h.059 118.888.059c2.9-.03 5.268-2.427 5.268-5.327v-4.232z" fill="#f9f7f8" fill-rule="evenodd"/></g><g><path clip-rule="evenodd" d="m31.237 320.744h118.888c2.93 0 5.327-2.397 5.327-5.298v-4.232-110.457-4.203c0-2.93-2.397-5.327-5.327-5.327h-118.888c-2.93 0-5.298 2.397-5.298 5.327v118.892c0 2.9 2.368 5.298 5.298 5.298z" fill="#f9f7f8" fill-rule="evenodd"/></g><g><path clip-rule="evenodd" d="m155.453 200.757-32.927 52.91 32.927 57.547h300.247c1.15 0 2.205-.639 2.739-1.658l27.27-52.138c.469-.897.469-1.967 0-2.865l-27.27-52.138c-.533-1.019-1.588-1.658-2.739-1.658z" fill="#75cef8" fill-rule="evenodd"/></g><g><path clip-rule="evenodd" d="m155.453 119.957h300.248c1.15 0 2.205-.639 2.738-1.658l27.269-52.108c.47-.897.47-1.968 0-2.865l-27.269-52.137c-.533-1.019-1.588-1.658-2.739-1.658h-300.247l-28.927 49.469z" fill="#eb5468" fill-rule="evenodd"/></g><g><path clip-rule="evenodd" d="m155.453 119.957v-110.427-4.232c0-2.93-2.397-5.298-5.327-5.298h-118.889c-2.93 0-5.298 2.368-5.298 5.298v118.891c0 2.93 2.368 5.327 5.298 5.327h118.888c2.93 0 5.327-2.397 5.327-5.327v-4.232z" fill="#f9f7f8" fill-rule="evenodd"/></g><g><path clip-rule="evenodd" d="m117.866 9.53v110.427 4.232c0 2.93-2.397 5.327-5.327 5.327h37.587c2.93 0 5.327-2.397 5.327-5.327v-4.232-110.427-4.232c0-2.93-2.397-5.298-5.327-5.298h-37.587c2.93 0 5.327 2.368 5.327 5.298z" fill="#dddaec" fill-rule="evenodd"/></g><g><path clip-rule="evenodd" d="m150.126 191.227h-37.587c2.93 0 5.327 2.397 5.327 5.327v4.203 110.456 4.232c0 2.901-2.397 5.298-5.327 5.298h37.587c2.93 0 5.327-2.397 5.327-5.298v-4.232-110.456-4.203c0-2.93-2.397-5.327-5.327-5.327z" fill="#dddaec" fill-rule="evenodd"/></g><g><path clip-rule="evenodd" d="m150.126 382.483h-37.587c2.93 0 5.327 2.368 5.327 5.298v4.232 110.427 4.232c0 2.901-2.368 5.298-5.268 5.327h37.528.059c2.9-.03 5.268-2.427 5.268-5.327v-4.232-110.427-4.232c0-2.93-2.397-5.298-5.327-5.298z" fill="#dddaec" fill-rule="evenodd"/></g><g><path clip-rule="evenodd" d="m410.573 9.53c6.866 18.942 10.714 40.045 10.714 62.302 0 16.87-2.19 33.06-6.245 48.125h40.659c1.15 0 2.205-.639 2.738-1.658l27.269-52.108c.47-.897.47-1.968 0-2.865l-27.269-52.137c-.533-1.019-1.588-1.658-2.739-1.658h-45.127z" fill="#e5384f" fill-rule="evenodd"/></g><g><path clip-rule="evenodd" d="m410.573 200.757c6.866 18.942 10.714 40.045 10.714 62.331 0 16.841-2.19 33.03-6.245 48.125h40.658c1.15 0 2.205-.639 2.739-1.658l27.27-52.138c.469-.897.469-1.967 0-2.865l-27.27-52.138c-.533-1.019-1.588-1.658-2.739-1.658h-45.127z" fill="#60b7ff" fill-rule="evenodd"/></g><g><path clip-rule="evenodd" d="m410.573 392.013c6.866 18.942 10.714 40.045 10.714 62.302 0 16.841-2.19 33.06-6.245 48.125h40.659c1.15 0 2.205-.639 2.738-1.658l27.269-52.108c.47-.897.47-1.968 0-2.865l-27.269-52.137c-.533-1.019-1.588-1.658-2.739-1.658h-45.127z" fill="#fbba58" fill-rule="evenodd"/></g><g><path d="m96.763 100.898c-4.267 0-7.726-3.459-7.726-7.726v-49.13h-4.437c-4.267 0-7.726-3.459-7.726-7.726s3.459-7.726 7.726-7.726h12.164c4.267 0 7.726 3.459 7.726 7.726v56.856c0 4.267-3.459 7.726-7.727 7.726z" fill="#2b4d66"/></g><g><path d="m87.89 292.718c-11.111 0-11.985-.292-13.016-.635-2.554-.87-4.427-2.79-5.184-5.283-1.273-4.191.696-6.766 4.27-11.441 2.88-3.768 8.242-10.78 17.273-23.686 3.033-4.325 4.278-7.402 4.784-9.309l.144-1.199c-.197-3.578-3.183-6.43-6.824-6.43-3.255 0-6.064 2.301-6.682 5.471-.815 4.189-4.869 6.925-9.061 6.107-4.188-.815-6.923-4.872-6.107-9.061 2.028-10.412 11.216-17.97 21.85-17.97 12.29 0 22.288 9.985 22.288 22.259 0 .308-.019.616-.055.922l-.267 2.22c-.034.284-.084.565-.149.844-1.09 4.642-3.533 9.694-7.264 15.013-5.053 7.221-8.986 12.642-11.994 16.701 4.469-.019 9.514-.063 14.3-.124 4.273-.089 7.77 3.36 7.825 7.627s-3.36 7.77-7.627 7.825c-8.175.104-14.133.149-18.504.149z" fill="#2b4d66"/></g><path d="m112.954 432.68c0-12.29-9.985-22.288-22.258-22.288-10.602 0-19.8 7.557-21.872 17.968-.834 4.185 1.884 8.253 6.069 9.086 4.189.837 8.254-1.884 9.086-6.069.638-3.206 3.463-5.532 6.717-5.532 3.753 0 6.805 3.066 6.805 6.835s-3.053 6.836-6.805 6.836c-4.267 0-7.726 3.459-7.726 7.726s3.459 7.726 7.726 7.726c3.753 0 6.805 3.053 6.805 6.806 0 3.769-3.053 6.836-6.805 6.836-3.393 0-6.299-2.515-6.752-5.79-.059-.455-.083-.758-.083-1.046 0-4.267-3.459-7.726-7.726-7.726s-7.726 3.459-7.726 7.726c0 .972.065 1.909.22 3.099 1.511 10.94 10.997 19.189 22.067 19.189 12.273 0 22.258-9.998 22.258-22.288 0-5.553-2.049-10.634-5.424-14.537 3.375-3.909 5.424-8.997 5.424-14.557z" fill="#2b4d66"/><g><path d="m245.455 54.105h-47.65c-4.267 0-7.726-3.459-7.726-7.726s3.459-7.726 7.726-7.726h47.65c4.267 0 7.726 3.459 7.726 7.726s-3.459 7.726-7.726 7.726z" fill="#2b4d66"/></g><g><path d="m294.673 92.048h-96.868c-4.267 0-7.726-3.459-7.726-7.726s3.459-7.726 7.726-7.726h96.868c4.268 0 7.726 3.459 7.726 7.726.001 4.267-3.458 7.726-7.726 7.726z" fill="#2b4d66"/></g><g><path d="m245.455 244.089h-47.65c-4.267 0-7.726-3.459-7.726-7.726s3.459-7.726 7.726-7.726h47.65c4.267 0 7.726 3.459 7.726 7.726.001 4.266-3.459 7.726-7.726 7.726z" fill="#2b4d66"/></g><g><path d="m294.673 282.062h-96.868c-4.267 0-7.726-3.459-7.726-7.726s3.459-7.726 7.726-7.726h96.868c4.268 0 7.726 3.459 7.726 7.726.001 4.267-3.458 7.726-7.726 7.726z" fill="#2b4d66"/></g><g><path d="m245.455 436.529h-47.65c-4.267 0-7.726-3.459-7.726-7.726s3.459-7.726 7.726-7.726h47.65c4.267 0 7.726 3.459 7.726 7.726.001 4.267-3.459 7.726-7.726 7.726z" fill="#2b4d66"/></g><g><path d="m294.673 474.472h-96.868c-4.267 0-7.726-3.459-7.726-7.726s3.459-7.726 7.726-7.726h96.868c4.268 0 7.726 3.459 7.726 7.726.001 4.267-3.458 7.726-7.726 7.726z" fill="#2b4d66"/></g></g></svg>