<svg id="Capa_1" enable-background="new 0 0 512 512" height="512" viewBox="0 0 512 512" width="512" xmlns="http://www.w3.org/2000/svg"><g><g><g><g><g><g><g><g><g><g><path d="m72.258 175.116c.012-11.34 9.215-20.523 20.555-20.51l227.916.25 148.647.163v-46.553c0-11.34-9.193-20.533-20.533-20.533h-232.511c-13.195 0-25.52-6.58-32.862-17.543l-5.38-8.034c-7.337-10.956-19.652-17.534-32.837-17.543l-107.257-.068c-16.806-.011-30.436 13.608-30.438 30.413l-.058 369.997c0 12.085 9.797 21.882 21.882 21.882 23.526 0 42.605-19.059 42.628-42.586z" fill="#fbd307"/><path d="m431.108 467.236c20.077-.639 36.168-17.104 36.19-37.341l.275-278.317c.012-11.34-9.17-20.543-20.51-20.555l-375.73-.452c-11.34-.012-20.543 9.17-20.555 20.51l-.292 294.131c-.013 11.922-9.689 21.832-21.611 21.819z" fill="#fce25c"/><path d="m483.99 131.023h-40.072c11.34.013 20.523 9.215 20.51 20.555l-.275 278.317c-.022 20.237-16.113 36.702-36.19 37.341l38.82.02c20.656.023 37.42-16.704 37.442-37.36l.275-278.317c.012-11.341-9.17-20.543-20.51-20.556z" fill="#fbd307"/></g></g></g></g></g></g><g><path d="m318.494 87.932h64.271v123.567h-64.271z" fill="#c2d0da"/><path d="m342.693 87.932h40.072v123.567h-40.072z" fill="#b6c1cc"/><g><g><path d="m425.236 298.667v-42.958c0-41.138-33.469-74.607-74.607-74.607s-74.607 33.469-74.607 74.607v42.958h35.784v-43.006c0-21.407 17.416-38.822 38.823-38.822s38.823 17.416 38.823 38.822v43.006z" fill="#f4f8f8"/><g><path d="m350.629 181.102c-6.938 0-13.658.952-20.036 2.732 23.757 6.631 42.771 24.753 50.644 47.97 5.145 6.587 8.215 14.87 8.215 23.856v43.006h35.784v-42.958c0-41.137-33.468-74.606-74.607-74.606z" fill="#e5ecf1"/></g><path d="m430.915 416.725h-160.57c-14.104 0-25.537-11.433-25.537-25.537v-79.919c0-14.104 11.433-25.537 25.537-25.537h160.57c14.104 0 25.537 11.433 25.537 25.537v79.919c0 14.104-11.434 25.537-25.537 25.537z" fill="#b1e4f9"/><path d="m430.915 285.732h-14.535v105.456c0 14.104-11.433 25.537-25.537 25.537h40.072c14.104 0 25.537-11.433 25.537-25.537v-79.919c0-14.104-11.434-25.537-25.537-25.537z" fill="#90d8f9"/></g><g><circle cx="350.629" cy="339.368" fill="#7c8b96" r="19.675"/></g></g></g></g><g><path d="m193.17 170.418h-90.463c-3.669 0-6.644 2.975-6.644 6.644v30.279c0 3.669 2.975 6.644 6.644 6.644h90.463c3.669 0 6.644-2.975 6.644-6.644v-30.279c0-3.67-2.975-6.644-6.644-6.644z" fill="#f4f8f8"/></g><path d="m193.17 170.418h-33.428v36.922c0 3.669-2.975 6.644-6.644 6.644h40.072c3.669 0 6.644-2.975 6.644-6.644v-30.279c0-3.669-2.975-6.643-6.644-6.643z" fill="#e5ecf1"/></g></g><g><path d="m484.002 123.523-7.125-.012v-15.046c0-15.458-12.576-28.033-28.033-28.033h-232.511c-10.714 0-20.669-5.314-26.631-14.216l-5.38-8.034c-8.745-13.058-23.349-20.86-39.064-20.87l-107.258-.067c-.009 0-.016 0-.025 0-20.944 0-37.915 16.946-37.918 37.913l-.057 369.997c0 16.436 13.737 29.356 28.866 29.376.012 0 .024-.003.035 0 .461.002.39.012.78 0l437.093.224h.051c24.774 0 44.872-20.032 44.899-44.853l.276-278.316c.017-15.457-12.545-28.046-27.998-28.063zm-66.266 154.709h-20.784v-22.572c0-25.542-20.78-46.323-46.323-46.323-25.542 0-46.322 20.78-46.322 46.323v22.572h-20.785v-22.523c0-37.003 30.104-67.107 67.107-67.107s67.107 30.104 67.107 67.107zm-98.429 0v-22.572c0-17.271 14.051-31.323 31.322-31.323s31.323 14.051 31.323 31.323v22.572zm31.322-104.63c-8.58 0-16.855 1.328-24.635 3.781v-81.951h49.271v81.951c-7.781-2.452-16.055-3.781-24.636-3.781zm146.096 256.285c-.018 16.508-13.379 29.869-29.904 29.869-.011 0-.023 0-.034 0l-412.539-.211c2.434-4.336 3.731-9.238 3.737-14.325l.292-294.13c.008-7.188 5.828-13.018 13.03-13.018h.015l212.594.271h.01c4.138 0 7.495-3.352 7.5-7.49.005-4.143-3.348-7.504-7.49-7.51l-212.596-.271c-.011 0-.021 0-.032 0-15.466 0-28.014 12.506-28.031 28.003l-.292 294.129c-.004 3.801-1.489 7.398-4.18 10.127-2.633 2.67-6.089 4.15-9.749 4.192-7.758-.173-14.056-6.6-14.056-14.367l.058-369.996c.002-12.658 10.245-22.915 22.918-22.915h.015l107.257.068c10.706.007 20.653 5.321 26.611 14.216l5.38 8.034c8.751 13.068 23.366 20.87 39.094 20.87h94.662v88.4c-25.299 14.006-42.472 40.97-42.472 71.877v22.576c-17.372.949-31.215 15.379-31.215 32.984v22.676c0 4.142 3.358 7.5 7.5 7.5s7.5-3.358 7.5-7.5v-22.676c0-9.945 8.091-18.037 18.037-18.037h160.57c9.946 0 18.037 8.091 18.037 18.037v79.919c0 9.945-8.091 18.037-18.037 18.037h-160.57c-9.946 0-18.037-8.091-18.037-18.037v-22.676c0-4.142-3.358-7.5-7.5-7.5s-7.5 3.358-7.5 7.5v22.676c0 18.216 14.82 33.037 33.037 33.037h160.57c18.217 0 33.037-14.82 33.037-33.037v-79.919c0-17.605-13.843-32.035-31.215-32.984v-22.576c0-30.907-17.173-57.87-42.471-71.877v-88.4h58.579c7.187 0 13.033 5.846 13.033 13.033v15.021l-44.533-.074c-.004 0-.009 0-.013 0-4.136 0-7.493 3.35-7.5 7.488-.007 4.142 3.345 7.505 7.487 7.512 8.535.014 58.898.098 66.663.111 7.186.008 13.026 5.861 13.019 13.048z"/><path d="m343.129 365.482v14.924c0 4.142 3.358 7.5 7.5 7.5s7.5-3.358 7.5-7.5v-14.924c11.347-3.264 19.675-13.731 19.675-26.114 0-14.984-12.19-27.175-27.175-27.175s-27.175 12.19-27.175 27.175c.001 12.382 8.329 22.85 19.675 26.114zm7.5-38.289c6.713 0 12.175 5.461 12.175 12.175s-5.461 12.175-12.175 12.175-12.175-5.461-12.175-12.175 5.462-12.175 12.175-12.175z"/><path d="m193.17 162.918h-90.463c-7.799 0-14.144 6.345-14.144 14.144v30.279c0 7.799 6.345 14.144 14.144 14.144h90.463c7.799 0 14.144-6.345 14.144-14.144v-30.279c-.001-7.799-6.345-14.144-14.144-14.144zm-.857 43.566h-88.75v-28.566h88.75z"/></g></g></svg>