<svg id="Capa_1" enable-background="new 0 0 512 512" height="512" viewBox="0 0 512 512" width="512" xmlns="http://www.w3.org/2000/svg"><g><g><path d="m491.976 480.139-56.968-20.259c-26.543 13.843-56.821 21.123-88.008 21.123-90.981 0-165-60.557-165-135 0-29.033 11.001-56.484 31.802-79.38 1.729-1.904 3.911-3.34 6.357-4.146 23.452-7.822 43.374-20.625 57.612-37.017 1.758-2.021 4.028-3.53 6.577-4.38 20.039-6.694 41.118-10.078 62.651-10.078 90.981 0 165 60.557 165 135 0 21.694-6.738 43.271-19.556 62.842l18.677 52.09c1.948 5.464.586 11.558-3.501 15.659-4.148 4.171-10.298 5.455-15.643 3.546z" fill="#97de3d"/></g><path d="m435.008 459.88 56.968 20.259c5.345 1.908 11.495.624 15.645-3.545 4.087-4.102 5.449-10.195 3.501-15.659l-18.677-52.09c12.817-19.57 19.555-41.147 19.555-62.841 0-74.443-74.019-135-165-135v270c31.187 0 61.465-7.281 88.008-21.124z" fill="#59c36a"/><g><path d="m165 301.004c-90.981 0-165-60.557-165-135 0-21.694 6.738-43.271 19.556-62.842l-18.677-52.09c-1.948-5.464-.586-11.558 3.501-15.659 4.072-4.116 10.181-5.493 15.645-3.545l56.968 20.259c26.528-13.843 56.791-21.123 88.007-21.123 90.981 0 165 60.557 165 135 0 75.99-76.074 135-165 135z" fill="#fed843"/></g><path d="m330 166.004c0-74.443-74.019-135-165-135v270c88.927 0 165-59.01 165-135z" fill="#fabe2c"/><g id="Quiz_2_"><g><path d="m287 376.004c-8.291 0-15-6.709-15-15v-30c0-8.291 6.709-15 15-15s15 6.709 15 15v30c0 8.291-6.709 15-15 15z" fill="#474f54"/></g><g><path d="m347 376.004c-8.291 0-15-6.709-15-15v-30c0-8.291 6.709-15 15-15s15 6.709 15 15v30c0 8.291-6.709 15-15 15z" fill="#474f54"/></g><g><path d="m407 376.004c-8.291 0-15-6.709-15-15v-30c0-8.291 6.709-15 15-15s15 6.709 15 15v30c0 8.291-6.709 15-15 15z" fill="#32393f"/></g><g><circle cx="165" cy="226.004" fill="#474f54" r="15"/></g></g><path d="m180 226.004c0-8.286-6.716-15-15-15v30c8.284 0 15-6.717 15-15z" fill="#32393f"/><path d="m362 361.004v-30c0-8.291-6.709-15-15-15v60c8.291 0 15-6.709 15-15z" fill="#32393f"/><g><path d="m210 136.004c0 18.9-12.001 36-29.7 42.299 0 8.401-6.899 16.5-15.3 16.5-8.101 0-15-5.4-15-13.799 0-12.601 5.7-23.101 15-28.5 1.5-.901 3.3-1.8 5.099-2.401 6-2.1 9.901-7.8 9.901-14.099 0-8.401-6.599-15-15-15s-15 6.599-15 15c0 8.399-6.599 15-15 15s-15-6.601-15-15c0-24.901 20.099-45 45-45s45 20.099 45 45z" fill="#474f54"/></g><path d="m210 136.004c0 18.9-12.001 36-29.7 42.299 0 8.401-6.899 16.5-15.3 16.5v-42.299c1.5-.901 3.3-1.8 5.099-2.401 6-2.1 9.901-7.8 9.901-14.099 0-8.401-6.599-15-15-15v-30c24.901 0 45 20.099 45 45z" fill="#32393f"/></g></svg>