<svg id="Capa_1" enable-background="new 0 0 512 512" height="512" viewBox="0 0 512 512" width="512" xmlns="http://www.w3.org/2000/svg"><g><path d="m318.439 462.007h-124.878c-5.747 0-10.407-4.659-10.407-10.407v-12.488c0-5.747 4.659-10.406 10.407-10.406h124.878c5.747 0 10.406 4.659 10.406 10.406v12.488c.001 5.747-4.659 10.407-10.406 10.407z" fill="#4172ca"/><path d="m318.439 428.706h-41.626c5.747 0 10.407 4.659 10.407 10.407v12.487c0 5.747-4.659 10.406-10.407 10.406h41.626c5.747 0 10.406-4.659 10.406-10.406v-12.488c.001-5.747-4.659-10.406-10.406-10.406z" fill="#3a67c1"/><path d="m256.002 0c-100.628-.001-181.731 80.933-181.931 181.561-.13 65.511 34.371 122.968 86.216 155.103 12.727 7.889 21.317 20.996 23.326 35.834l3.108 22.949h138.558l3.107-22.943c1.985-14.661 10.291-27.81 22.888-35.569 51.992-32.023 86.655-89.464 86.655-155.006 0-100.476-81.451-181.928-181.927-181.929z" fill="#f7e365"/><path d="m355.071 29.328c26.861 33.03 42.97 75.154 42.97 121.046 0 106.039-85.961 192-192 192-15.589 0-30.738-1.871-45.249-5.378 12.445 7.921 20.839 20.864 22.821 35.502l3.108 22.949h138.558l3.107-22.943c1.985-14.661 10.291-27.81 22.888-35.569 51.992-32.023 86.655-89.464 86.655-155.006 0-63.933-32.984-120.155-82.858-152.601z" fill="#f3d332"/><path d="m328.846 428.748h-145.691c-5.747 0-10.407-4.659-10.407-10.406v-12.488c0-5.747 4.659-10.407 10.407-10.407h145.691c5.747 0 10.406 4.659 10.406 10.407v12.488c0 5.747-4.659 10.406-10.406 10.406z" fill="#4172ca"/><path d="m328.846 395.447h-41.626c5.747 0 10.406 4.659 10.406 10.407v12.488c0 5.747-4.659 10.406-10.406 10.406h41.626c5.747 0 10.406-4.659 10.406-10.406v-12.488c0-5.748-4.659-10.407-10.406-10.407z" fill="#3a67c1"/><path d="m282.479 512h-52.958c-9.791 0-18.258-6.824-20.338-16.391l-7.297-33.56h108.228l-7.297 33.56c-2.08 9.567-10.547 16.391-20.338 16.391z" fill="#ddebfd"/><path d="m282.016 462.049-7.297 33.56c-2.08 9.567-10.547 16.391-20.338 16.391h28.098c9.791 0 18.258-6.824 20.338-16.391l7.297-33.56z" fill="#bed9fd"/><g><circle cx="255.88" cy="308.301" fill="#edf6ff" r="18.912"/><g><g><path d="m255.88 251.566c-10.445 0-18.912-8.467-18.912-18.911v-36.395c0-10.445 8.467-18.912 18.912-18.912 10.81 0 20.87-4.325 28.327-12.18 7.451-7.848 11.245-18.142 10.682-28.987-1.054-20.31-17.83-36.541-38.194-36.95-19.749-.437-36.774 14.036-39.5 33.582-.252 1.797-.379 3.637-.379 5.472 0 10.445-8.467 18.912-18.911 18.912s-18.912-8.467-18.912-18.912c0-3.581.249-7.182.742-10.704 5.373-38.505 38.791-66.962 77.721-66.167 40.093.808 73.127 32.788 75.204 72.807 1.106 21.305-6.361 41.546-21.024 56.99-10.036 10.571-22.9 18.012-36.845 21.574v19.87c.001 10.445-8.466 18.911-18.911 18.911z" fill="#edf6ff"/></g></g></g></g></svg>