<svg id="Layer_1" enable-background="new 0 0 128 128" height="512" viewBox="0 0 128 128" width="512" xmlns="http://www.w3.org/2000/svg"><g><g><path d="m108.895 55.601c-.344 0-.682.014-1.021.026l-11.846-15.692c-1.349-1.787-3.491-2.854-5.729-2.854h-77.245c-3.959 0-7.181 3.221-7.181 7.18v43.477c0 3.959 3.222 7.181 7.181 7.181h77.218c2.236 0 4.376-1.064 5.726-2.848l11.917-15.749c.327.011.649.029.981.029 9.662 0 17.231-4.558 17.231-10.375s-7.569-10.375-17.232-10.375zm-12.859 14.778c-1.489-1.29-2.372-2.8-2.372-4.404 0-1.888 1.164-3.376 2.322-4.393 1.331 1.018 2.194 2.616 2.194 4.417.001 1.779-.841 3.361-2.144 4.38zm-1.927.975c-.476.133-.975.209-1.492.209-3.067 0-5.563-2.496-5.563-5.564 0-3.067 2.496-5.563 5.563-5.563.509 0 1 .074 1.469.203-1.581 1.596-2.421 3.415-2.421 5.337-.001 1.986.898 3.817 2.444 5.378zm15.308 2.982 3.025-3.998c1.929-2.547 1.93-6.105.005-8.655l-3.071-4.068c8.043.146 14.751 3.91 14.751 8.361 0 4.443-6.686 8.201-14.71 8.36z" fill="#e6e7e8"/></g><g><g><path d="m107.65 58.286-16.419-21.748c-1.168-1.547-2.994-2.456-4.932-2.456h-77.246c-3.413 0-6.18 2.767-6.18 6.18v43.477c0 3.413 2.767 6.18 6.18 6.18h77.218c1.936 0 3.76-.907 4.928-2.451l16.447-21.733c1.666-2.203 1.668-5.245.004-7.449zm-19.034 10.278c-3.625 0-6.564-2.939-6.564-6.564s2.939-6.564 6.564-6.564 6.564 2.939 6.564 6.564-2.939 6.564-6.564 6.564z" fill="#fa759e"/></g><g><g><path d="m25.611 56.369h-3.322v10.92c0 .629-.141 1.096-.42 1.399-.281.305-.644.456-1.088.456-.451 0-.818-.153-1.102-.461s-.426-.772-.426-1.395v-10.92h-3.322c-.52 0-.906-.115-1.158-.344-.254-.229-.38-.531-.38-.908 0-.389.132-.697.395-.922.264-.227.645-.339 1.144-.339h9.68c.526 0 .918.116 1.174.349.257.232.385.537.385.912 0 .377-.13.679-.39.908-.261.23-.65.345-1.17.345z" fill="#fff"/></g><g><path d="m29.098 67.289v-11.843c0-.615.14-1.076.42-1.384s.642-.462 1.087-.462c.457 0 .828.152 1.112.457.283.304.425.768.425 1.389v11.844c0 .622-.142 1.087-.425 1.395-.284.308-.655.461-1.112.461-.438 0-.799-.155-1.082-.466-.284-.313-.425-.775-.425-1.391z" fill="#fff"/></g><g><path d="m45.309 56.369h-3.322v10.92c0 .629-.141 1.096-.42 1.399-.281.305-.644.456-1.088.456-.451 0-.818-.153-1.102-.461s-.426-.772-.426-1.395v-10.92h-3.322c-.52 0-.906-.115-1.158-.344-.254-.229-.38-.531-.38-.908 0-.389.132-.697.395-.922.264-.227.645-.339 1.144-.339h9.68c.526 0 .918.116 1.174.349.257.232.385.537.385.912 0 .377-.13.679-.39.908-.261.23-.651.345-1.17.345z" fill="#fff"/></g><g><path d="m51.656 55.446v10.941h6.172c.492 0 .87.12 1.134.359.263.239.395.54.395.902 0 .369-.13.668-.39.896-.26.229-.64.344-1.139.344h-7.352c-.663 0-1.14-.146-1.431-.441-.29-.293-.436-.769-.436-1.425v-11.576c0-.615.139-1.076.415-1.384.277-.308.641-.462 1.092-.462.458 0 .829.152 1.113.457.285.304.427.767.427 1.389z" fill="#fff"/></g><g><path d="m71.261 56.205h-6.861v3.691h6.316c.465 0 .813.104 1.041.313.229.208.344.483.344.825s-.113.62-.338.836c-.227.215-.574.323-1.047.323h-6.316v4.275h7.096c.479 0 .84.111 1.082.333.243.223.364.519.364.888 0 .355-.121.644-.364.866-.242.222-.604.333-1.082.333h-8.274c-.663 0-1.14-.146-1.431-.441-.29-.293-.436-.769-.436-1.425v-11.3c0-.438.064-.795.195-1.071.129-.277.333-.479.609-.605.277-.126.631-.189 1.062-.189h8.039c.485 0 .846.107 1.082.323.235.215.354.497.354.846 0 .355-.118.641-.354.856s-.596.323-1.081.323z" fill="#fff"/></g></g><g><g><path d="m5.873 83.738v-43.477c0-3.413 2.767-6.18 6.18-6.18h-3c-3.413 0-6.18 2.767-6.18 6.18v43.477c0 3.413 2.767 6.18 6.18 6.18h3c-3.413 0-6.18-2.767-6.18-6.18z" fill="#fff"/></g></g><g fill="#3a2c60"><path d="m65.502 88.918h-6.938c-.553 0-1 .447-1 1s.447 1 1 1h6.938c.553 0 1-.447 1-1s-.447-1-1-1z"/><path d="m104.896 51.601c-.344 0-.682.014-1.021.026l-11.847-15.692c-1.349-1.787-3.491-2.854-5.729-2.854h-77.246c-3.959 0-7.18 3.221-7.18 7.18v43.477c0 3.959 3.222 7.18 7.181 7.18h45.26c.553 0 1-.447 1-1s-.447-1-1-1h-45.26c-2.856 0-5.181-2.323-5.181-5.18v-43.477c0-2.856 2.323-5.18 5.18-5.18h77.246c1.615 0 3.16.77 4.134 2.059l16.419 21.748c1.389 1.839 1.387 4.405-.004 6.242l-3.89 5.141c-3.612-.266-6.864-1.258-9.251-2.693 1.515-1.384 2.473-3.369 2.473-5.579 0-4.171-3.393-7.564-7.563-7.564s-7.565 3.394-7.565 7.565 3.394 7.564 7.564 7.564c1.164 0 2.263-.272 3.249-.744 2.448 1.695 5.803 2.894 9.665 3.337l-11.128 14.707c-.974 1.286-2.519 2.054-4.132 2.054h-16.205c-.553 0-1 .447-1 1s.447 1 1 1h16.206c2.236 0 4.377-1.064 5.727-2.847l11.917-15.749c.327.011.65.029.982.029 9.662 0 17.231-4.558 17.231-10.375s-7.57-10.375-17.232-10.375zm-10.716 10.399c0 1.778-.842 3.36-2.144 4.38-1.489-1.289-2.372-2.8-2.372-4.403 0-1.888 1.164-3.377 2.323-4.393 1.329 1.017 2.193 2.615 2.193 4.416zm-11.128 0c0-3.068 2.496-5.564 5.564-5.564.509 0 1.001.075 1.47.203-1.581 1.596-2.422 3.415-2.422 5.338 0 1.986.898 3.818 2.445 5.379-.476.133-.975.209-1.492.209-3.069-.001-5.565-2.497-5.565-5.565zm22.365 8.336 3.026-3.999c1.929-2.547 1.931-6.105.005-8.654l-3.071-4.068c8.043.146 14.751 3.91 14.751 8.361-.001 4.444-6.687 8.202-14.711 8.36z"/></g></g></g></svg>