<svg xmlns="http://www.w3.org/2000/svg" height="596.718pt" version="1.1" viewBox="1 1 596.718 596.718" width="596.718pt">
<g id="surface1">
<path d="M 527.347656 557.199219 C 527.347656 573.6875 513.984375 587.050781 497.5 587.050781 L 99.5 587.050781 C 83.011719 587.050781 69.648438 573.6875 69.648438 557.199219 L 69.648438 39.800781 C 69.648438 23.3125 83.011719 9.949219 99.5 9.949219 L 497.5 9.949219 C 513.988281 9.949219 527.351562 23.3125 527.351562 39.800781 L 527.351562 557.199219 Z M 527.347656 557.199219 " style=" stroke:none;fill-rule:nonzero;fill:rgb(52.941176%,80.784314%,85.098039%);fill-opacity:1;" />
<path d="M 497.5 587.050781 L 39.800781 587.050781 C 23.3125 587.050781 9.949219 573.6875 9.949219 557.199219 L 9.949219 527.347656 L 467.648438 527.347656 L 467.648438 557.199219 C 467.648438 573.6875 481.011719 587.050781 497.5 587.050781 Z M 497.5 587.050781 " style=" stroke:none;fill-rule:nonzero;fill:rgb(26.27451%,59.607843%,81.960784%);fill-opacity:1;" />
<path d="M 9.949219 169.148438 L 208.949219 169.148438 L 208.949219 288.550781 L 9.949219 288.550781 Z M 9.949219 169.148438 " style=" stroke:none;fill-rule:nonzero;fill:rgb(99.215686%,65.490196%,18.431373%);fill-opacity:1;" />
<path d="M 62.617188 248.980469 L 42.714844 229.078125 C 38.835938 225.199219 38.835938 218.890625 42.714844 215.007812 L 62.617188 195.109375 L 76.683594 209.179688 L 63.820312 222.042969 L 76.683594 234.90625 Z M 62.617188 248.980469 " style=" stroke:none;fill-rule:nonzero;fill:rgb(100%,54.117647%,23.921569%);fill-opacity:1;" />
<path d="M 156.285156 248.980469 L 142.214844 234.910156 L 155.082031 222.042969 L 142.214844 209.179688 L 156.285156 195.109375 L 176.183594 215.007812 C 180.066406 218.890625 180.066406 225.199219 176.183594 229.078125 Z M 156.285156 248.980469 " style=" stroke:none;fill-rule:nonzero;fill:rgb(100%,54.117647%,23.921569%);fill-opacity:1;" />
<path d="M 90.042969 248.75 L 109.957031 189.054688 L 128.832031 195.351562 L 108.921875 255.046875 Z M 90.042969 248.75 " style=" stroke:none;fill-rule:nonzero;fill:rgb(100%,54.117647%,23.921569%);fill-opacity:1;" />
<path d="M 248.75 69.648438 L 587.050781 69.648438 L 587.050781 268.648438 L 248.75 268.648438 Z M 248.75 69.648438 " style=" stroke:none;fill-rule:nonzero;fill:rgb(26.27451%,59.607843%,81.960784%);fill-opacity:1;" />
<path d="M 587.050781 228.851562 L 517.398438 189.050781 L 440.566406 228.851562 L 348.25 169.148438 L 248.75 228.851562 L 248.75 268.648438 L 587.050781 268.648438 Z M 587.050781 228.851562 " style=" stroke:none;fill-rule:nonzero;fill:rgb(19.607843%,41.176471%,63.137255%);fill-opacity:1;" />
<path d="M 497.5 134.324219 C 497.5 148.0625 486.363281 159.199219 472.625 159.199219 C 458.886719 159.199219 447.75 148.0625 447.75 134.324219 C 447.75 120.585938 458.886719 109.449219 472.625 109.449219 C 486.363281 109.449219 497.5 120.585938 497.5 134.324219 Z M 497.5 134.324219 " style=" stroke:none;fill-rule:nonzero;fill:rgb(89.019608%,29.411765%,52.941176%);fill-opacity:1;" />
<path d="M 109.449219 328.351562 L 358.199219 328.351562 L 358.199219 447.75 L 109.449219 447.75 Z M 109.449219 328.351562 " style=" stroke:none;fill-rule:nonzero;fill:rgb(89.019608%,29.411765%,52.941176%);fill-opacity:1;" />
<path d="M 139.300781 358.199219 L 179.097656 358.199219 L 179.097656 378.101562 L 139.300781 378.101562 Z M 139.300781 358.199219 " style=" stroke:none;fill-rule:nonzero;fill:rgb(74.901961%,23.921569%,45.882353%);fill-opacity:1;" />
<path d="M 199 358.199219 L 288.550781 358.199219 L 288.550781 378.101562 L 199 378.101562 Z M 199 358.199219 " style=" stroke:none;fill-rule:nonzero;fill:rgb(74.901961%,23.921569%,45.882353%);fill-opacity:1;" />
<path d="M 308.449219 358.199219 L 328.351562 358.199219 L 328.351562 378.101562 L 308.449219 378.101562 Z M 308.449219 358.199219 " style=" stroke:none;fill-rule:nonzero;fill:rgb(74.901961%,23.921569%,45.882353%);fill-opacity:1;" />
<path d="M 139.300781 398 L 258.699219 398 L 258.699219 417.902344 L 139.300781 417.902344 Z M 139.300781 398 " style=" stroke:none;fill-rule:nonzero;fill:rgb(74.901961%,23.921569%,45.882353%);fill-opacity:1;" />
<path d="M 278.597656 398 L 328.347656 398 L 328.347656 417.902344 L 278.597656 417.902344 Z M 278.597656 398 " style=" stroke:none;fill-rule:nonzero;fill:rgb(74.901961%,23.921569%,45.882353%);fill-opacity:1;" />
<path d="M 99.5 39.800781 L 119.402344 39.800781 L 119.402344 59.699219 L 99.5 59.699219 Z M 99.5 39.800781 " style=" stroke:none;fill-rule:nonzero;fill:rgb(36.862745%,70.196078%,81.960784%);fill-opacity:1;" />
<path d="M 139.300781 39.800781 L 159.199219 39.800781 L 159.199219 59.699219 L 139.300781 59.699219 Z M 139.300781 39.800781 " style=" stroke:none;fill-rule:nonzero;fill:rgb(36.862745%,70.196078%,81.960784%);fill-opacity:1;" />
<path d="M 179.097656 39.800781 L 199 39.800781 L 199 59.699219 L 179.097656 59.699219 Z M 179.097656 39.800781 " style=" stroke:none;fill-rule:nonzero;fill:rgb(36.862745%,70.196078%,81.960784%);fill-opacity:1;" />
<path d="M 99.5 79.597656 L 218.902344 79.597656 L 218.902344 99.5 L 99.5 99.5 Z M 99.5 79.597656 " style=" stroke:none;fill-rule:nonzero;fill:rgb(36.862745%,70.196078%,81.960784%);fill-opacity:1;" />
<path d="M 398 368.148438 L 587.050781 368.148438 L 587.050781 487.550781 L 398 487.550781 Z M 398 368.148438 " style=" stroke:none;fill-rule:nonzero;fill:rgb(89.019608%,29.411765%,52.941176%);fill-opacity:1;" />
<path d="M 427.851562 398 L 447.75 398 L 447.75 417.902344 L 427.851562 417.902344 Z M 427.851562 398 " style=" stroke:none;fill-rule:nonzero;fill:rgb(74.901961%,23.921569%,45.882353%);fill-opacity:1;" />
<path d="M 427.851562 437.800781 L 447.75 437.800781 L 447.75 457.699219 L 427.851562 457.699219 Z M 427.851562 437.800781 " style=" stroke:none;fill-rule:nonzero;fill:rgb(74.901961%,23.921569%,45.882353%);fill-opacity:1;" />
<path d="M 467.648438 398 L 557.199219 398 L 557.199219 417.902344 L 467.648438 417.902344 Z M 467.648438 398 " style=" stroke:none;fill-rule:nonzero;fill:rgb(74.901961%,23.921569%,45.882353%);fill-opacity:1;" />
<path d="M 467.648438 437.800781 L 557.199219 437.800781 L 557.199219 457.699219 L 467.648438 457.699219 Z M 467.648438 437.800781 " style=" stroke:none;fill-rule:nonzero;fill:rgb(74.901961%,23.921569%,45.882353%);fill-opacity:1;" />
<path d="M 268.648438 268.648438 L 527.351562 268.648438 L 527.351562 288.550781 L 268.648438 288.550781 Z M 268.648438 268.648438 " style=" stroke:none;fill-rule:nonzero;fill:rgb(44.313725%,76.862745%,81.960784%);fill-opacity:1;" />
<path d="M 417.898438 487.550781 L 527.347656 487.550781 L 527.347656 507.449219 L 417.898438 507.449219 Z M 417.898438 487.550781 " style=" stroke:none;fill-rule:nonzero;fill:rgb(44.313725%,76.862745%,81.960784%);fill-opacity:1;" />
<path d="M 208.949219 189.050781 L 208.949219 288.550781 L 69.648438 288.550781 L 69.648438 308.449219 L 228.851562 308.449219 L 228.851562 189.050781 Z M 208.949219 189.050781 " style=" stroke:none;fill-rule:nonzero;fill:rgb(44.313725%,76.862745%,81.960784%);fill-opacity:1;" />
<path d="M 358.199219 348.25 L 358.199219 447.75 L 129.351562 447.75 L 129.351562 467.648438 L 378.097656 467.648438 L 378.097656 348.25 Z M 358.199219 348.25 " style=" stroke:none;fill-rule:nonzero;fill:rgb(44.313725%,76.862745%,81.960784%);fill-opacity:1;" />
<path d="M 59.699219 39.800781 L 59.699219 139.300781 L 79.601562 139.300781 L 79.601562 39.800781 C 79.601562 28.804688 88.503906 19.898438 99.5 19.898438 L 497.5 19.898438 C 508.496094 19.898438 517.402344 28.804688 517.402344 39.800781 L 537.300781 39.800781 C 537.300781 17.820312 519.480469 0 497.5 0 L 99.5 0 C 77.519531 0 59.699219 17.820312 59.699219 39.800781 Z M 59.699219 39.800781 " style=" stroke:none;fill-rule:nonzero;fill:rgb(0%,0%,0%);fill-opacity:1;" />
<path d="M 39.800781 597 L 497.5 597 C 519.476562 597 537.296875 579.179688 537.296875 557.199219 L 537.296875 517.402344 L 517.398438 517.402344 L 517.398438 557.199219 C 517.398438 568.195312 508.492188 577.101562 497.496094 577.101562 C 486.503906 577.101562 477.597656 568.195312 477.597656 557.199219 L 477.597656 527.347656 C 477.597656 521.855469 473.140625 517.398438 467.648438 517.398438 L 79.597656 517.398438 L 79.597656 318.398438 L 59.699219 318.398438 L 59.699219 517.398438 L 9.949219 517.398438 C 4.457031 517.398438 0 521.859375 0 527.347656 L 0 557.199219 C 0 579.179688 17.820312 597 39.800781 597 Z M 19.902344 537.300781 L 457.699219 537.300781 L 457.699219 557.199219 C 457.691406 564.183594 459.53125 571.0625 463.042969 577.101562 L 39.800781 577.101562 C 28.804688 577.101562 19.898438 568.195312 19.898438 557.199219 L 19.898438 537.300781 Z M 19.902344 537.300781 " style=" stroke:none;fill-rule:nonzero;fill:rgb(0%,0%,0%);fill-opacity:1;" />
<path d="M 9.949219 298.5 L 208.949219 298.5 C 214.441406 298.5 218.898438 294.042969 218.898438 288.550781 L 218.898438 169.148438 C 218.898438 163.65625 214.441406 159.199219 208.949219 159.199219 L 9.949219 159.199219 C 4.457031 159.199219 0 163.65625 0 169.148438 L 0 288.550781 C 0 294.042969 4.457031 298.5 9.949219 298.5 Z M 19.902344 179.097656 L 199 179.097656 L 199 278.597656 L 19.902344 278.597656 Z M 19.902344 179.097656 " style=" stroke:none;fill-rule:nonzero;fill:rgb(0%,0%,0%);fill-opacity:1;" />
<path d="M 62.617188 201.914062 L 42.714844 221.816406 C 38.835938 225.695312 38.835938 232.003906 42.714844 235.882812 L 62.617188 255.785156 L 76.683594 241.714844 L 63.820312 228.851562 L 76.683594 215.984375 Z M 62.617188 201.914062 " style=" stroke:none;fill-rule:nonzero;fill:rgb(0%,0%,0%);fill-opacity:1;" />
<path d="M 156.285156 201.914062 L 142.214844 215.984375 L 155.082031 228.851562 L 142.214844 241.714844 L 156.285156 255.785156 L 176.183594 235.882812 C 180.066406 232.003906 180.066406 225.695312 176.183594 221.816406 Z M 156.285156 201.914062 " style=" stroke:none;fill-rule:nonzero;fill:rgb(0%,0%,0%);fill-opacity:1;" />
<path d="M 90.042969 255.5625 L 109.957031 195.863281 L 128.832031 202.160156 L 108.921875 261.859375 Z M 90.042969 255.5625 " style=" stroke:none;fill-rule:nonzero;fill:rgb(0%,0%,0%);fill-opacity:1;" />
<path d="M 587.050781 59.699219 L 248.75 59.699219 C 243.257812 59.699219 238.800781 64.15625 238.800781 69.648438 L 238.800781 268.648438 C 238.800781 274.140625 243.257812 278.597656 248.75 278.597656 L 587.050781 278.597656 C 592.542969 278.597656 597 274.140625 597 268.648438 L 597 69.648438 C 597 64.15625 592.542969 59.699219 587.050781 59.699219 Z M 577.097656 258.699219 L 258.699219 258.699219 L 258.699219 234.480469 L 348.050781 180.871094 L 435.164062 237.207031 C 438.15625 239.136719 441.949219 239.316406 445.113281 237.683594 L 517.140625 200.371094 L 577.097656 234.621094 Z M 577.097656 211.707031 L 522.375 180.414062 C 519.4375 178.742188 515.859375 178.664062 512.863281 180.214844 L 441.152344 217.359375 L 353.691406 160.792969 C 350.5 158.730469 346.417969 158.664062 343.164062 160.621094 L 258.699219 211.277344 L 258.699219 79.597656 L 577.097656 79.597656 Z M 577.097656 211.707031 " style=" stroke:none;fill-rule:nonzero;fill:rgb(0%,0%,0%);fill-opacity:1;" />
<path d="M 472.625 169.148438 C 491.855469 169.148438 507.449219 153.558594 507.449219 134.324219 C 507.449219 115.089844 491.859375 99.5 472.625 99.5 C 453.390625 99.5 437.796875 115.089844 437.796875 134.324219 C 437.796875 153.558594 453.390625 169.148438 472.625 169.148438 Z M 472.625 119.402344 C 480.863281 119.402344 487.550781 126.085938 487.550781 134.324219 C 487.550781 142.5625 480.863281 149.25 472.625 149.25 C 464.386719 149.25 457.699219 142.5625 457.699219 134.324219 C 457.699219 126.085938 464.386719 119.402344 472.625 119.402344 Z M 472.625 119.402344 " style=" stroke:none;fill-rule:nonzero;fill:rgb(0%,0%,0%);fill-opacity:1;" />
<path d="M 99.5 328.351562 L 99.5 447.75 C 99.5 453.242188 103.957031 457.699219 109.449219 457.699219 L 358.199219 457.699219 C 363.691406 457.699219 368.148438 453.242188 368.148438 447.75 L 368.148438 328.351562 C 368.148438 322.859375 363.691406 318.402344 358.199219 318.402344 L 109.449219 318.402344 C 103.957031 318.398438 99.5 322.859375 99.5 328.351562 Z M 119.402344 338.300781 L 348.25 338.300781 L 348.25 437.800781 L 119.402344 437.800781 Z M 119.402344 338.300781 " style=" stroke:none;fill-rule:nonzero;fill:rgb(0%,0%,0%);fill-opacity:1;" />
<path d="M 139.300781 358.199219 L 179.097656 358.199219 L 179.097656 378.101562 L 139.300781 378.101562 Z M 139.300781 358.199219 " style=" stroke:none;fill-rule:nonzero;fill:rgb(0%,0%,0%);fill-opacity:1;" />
<path d="M 199 358.199219 L 288.550781 358.199219 L 288.550781 378.101562 L 199 378.101562 Z M 199 358.199219 " style=" stroke:none;fill-rule:nonzero;fill:rgb(0%,0%,0%);fill-opacity:1;" />
<path d="M 308.449219 358.199219 L 328.351562 358.199219 L 328.351562 378.101562 L 308.449219 378.101562 Z M 308.449219 358.199219 " style=" stroke:none;fill-rule:nonzero;fill:rgb(0%,0%,0%);fill-opacity:1;" />
<path d="M 139.300781 398 L 258.699219 398 L 258.699219 417.902344 L 139.300781 417.902344 Z M 139.300781 398 " style=" stroke:none;fill-rule:nonzero;fill:rgb(0%,0%,0%);fill-opacity:1;" />
<path d="M 278.597656 398 L 328.347656 398 L 328.347656 417.902344 L 278.597656 417.902344 Z M 278.597656 398 " style=" stroke:none;fill-rule:nonzero;fill:rgb(0%,0%,0%);fill-opacity:1;" />
<path d="M 99.5 39.800781 L 119.402344 39.800781 L 119.402344 59.699219 L 99.5 59.699219 Z M 99.5 39.800781 " style=" stroke:none;fill-rule:nonzero;fill:rgb(0%,0%,0%);fill-opacity:1;" />
<path d="M 139.300781 39.800781 L 159.199219 39.800781 L 159.199219 59.699219 L 139.300781 59.699219 Z M 139.300781 39.800781 " style=" stroke:none;fill-rule:nonzero;fill:rgb(0%,0%,0%);fill-opacity:1;" />
<path d="M 179.097656 39.800781 L 199 39.800781 L 199 59.699219 L 179.097656 59.699219 Z M 179.097656 39.800781 " style=" stroke:none;fill-rule:nonzero;fill:rgb(0%,0%,0%);fill-opacity:1;" />
<path d="M 99.5 79.597656 L 218.902344 79.597656 L 218.902344 99.5 L 99.5 99.5 Z M 99.5 79.597656 " style=" stroke:none;fill-rule:nonzero;fill:rgb(0%,0%,0%);fill-opacity:1;" />
<path d="M 587.050781 358.199219 L 398 358.199219 C 392.507812 358.199219 388.050781 362.660156 388.050781 368.148438 L 388.050781 487.550781 C 388.050781 493.042969 392.507812 497.5 398 497.5 L 587.050781 497.5 C 592.542969 497.5 597 493.042969 597 487.550781 L 597 368.148438 C 597 362.65625 592.542969 358.199219 587.050781 358.199219 Z M 577.097656 477.597656 L 407.949219 477.597656 L 407.949219 378.097656 L 577.097656 378.097656 Z M 577.097656 477.597656 " style=" stroke:none;fill-rule:nonzero;fill:rgb(0%,0%,0%);fill-opacity:1;" />
<path d="M 427.851562 398 L 447.75 398 L 447.75 417.902344 L 427.851562 417.902344 Z M 427.851562 398 " style=" stroke:none;fill-rule:nonzero;fill:rgb(0%,0%,0%);fill-opacity:1;" />
<path d="M 427.851562 437.800781 L 447.75 437.800781 L 447.75 457.699219 L 427.851562 457.699219 Z M 427.851562 437.800781 " style=" stroke:none;fill-rule:nonzero;fill:rgb(0%,0%,0%);fill-opacity:1;" />
<path d="M 467.648438 398 L 557.199219 398 L 557.199219 417.902344 L 467.648438 417.902344 Z M 467.648438 398 " style=" stroke:none;fill-rule:nonzero;fill:rgb(0%,0%,0%);fill-opacity:1;" />
<path d="M 467.648438 437.800781 L 557.199219 437.800781 L 557.199219 457.699219 L 467.648438 457.699219 Z M 467.648438 437.800781 " style=" stroke:none;fill-rule:nonzero;fill:rgb(0%,0%,0%);fill-opacity:1;" />
<path d="M 517.398438 298.5 L 537.300781 298.5 L 537.300781 338.300781 L 517.398438 338.300781 Z M 517.398438 298.5 " style=" stroke:none;fill-rule:nonzero;fill:rgb(0%,0%,0%);fill-opacity:1;" />
</g>
</svg>